<svg width="355" height="364" viewBox="0 0 355 364" fill="none" xmlns="http://www.w3.org/2000/svg">
<path fill-rule="evenodd" clip-rule="evenodd" d="M167.424 0.592702C166.497 1.15901 155.262 7.74439 153.69 8.6422C152.468 9.3392 142.282 15.3806 140.033 16.7416C137.977 17.9858 137.776 19.3384 137.769 31.963C137.761 45.8934 138.745 43.7472 130.146 48.5954C129.426 49.0012 127.072 50.3421 124.914 51.5757C122.756 52.8092 118.684 55.1287 115.867 56.7299C113.049 58.3321 108.438 60.9522 105.621 62.5545C102.803 64.1557 98.732 66.4751 96.5738 67.7087C94.4156 68.9422 92.0612 70.2831 91.3418 70.689C87.4941 72.8575 84.029 74.8444 81.2124 76.4945C77.4672 78.6885 77.7648 78.6588 75.1302 77.099C71.6608 75.0452 55.2683 65.5284 53.6279 64.6157C50.6424 62.9551 49.3583 63.3174 41.2019 68.1209C37.1253 70.5222 33.1032 72.8703 32.2639 73.3399C31.4246 73.8085 30.2169 74.5522 29.5803 74.9921C28.9438 75.432 28.2931 75.7922 28.1328 75.7922C27.9737 75.7922 26.9872 76.3659 25.9419 77.0672C24.8966 77.7684 23.9156 78.3422 23.7619 78.3422C23.6083 78.3422 22.6142 78.9244 21.5525 79.6374C18.2684 81.8399 18.312 81.5977 18.313 97.5522C18.3152 112.809 18.4711 113.874 20.8386 114.801C21.2658 114.968 26.9556 118.228 33.4825 122.047L45.3493 128.99L45.2382 158.126L45.1259 187.263L41.8559 189.241C40.0574 190.329 34.4439 193.652 29.3798 196.626C24.3167 199.601 19.8042 202.434 19.3518 202.92C18.1997 204.161 17.8378 232.615 18.9485 234.708C19.9873 236.668 48.0983 253.017 50.4265 253.017C51.8196 253.017 54.1859 251.797 64.4526 245.792C71.2444 241.818 77.1467 238.567 77.5686 238.567C77.9893 238.567 85.1855 242.448 93.5577 247.192C101.931 251.937 115.199 259.443 123.041 263.874L137.3 271.93L137.322 283.617C137.346 296.164 137.553 297.733 139.407 299.422C142.105 301.878 168.387 316.767 170.01 316.76C171.9 316.75 199.698 300.696 201.187 298.753C202.034 297.648 202.097 296.862 202.304 284.896C202.423 277.92 202.62 272.117 202.739 272C202.859 271.884 205.999 270.081 209.715 267.993C215.896 264.521 225.433 259.134 238.491 251.739C241.249 250.177 247.331 246.752 252.007 244.127C256.683 241.502 260.696 239.177 260.924 238.961C261.791 238.136 263.098 238.765 275.128 245.792C289.26 254.048 289.645 254.172 293.576 251.742C294.709 251.041 295.742 250.467 295.871 250.467C296 250.467 296.96 249.893 298.005 249.192C299.051 248.491 300.037 247.917 300.196 247.917C300.356 247.917 301.007 247.557 301.644 247.117C302.28 246.677 303.488 245.933 304.327 245.465C314.618 239.717 320.302 236.054 321.015 234.712C321.719 233.384 321.778 231.938 321.669 218.495L321.549 203.735L320.38 202.595C319.735 201.968 313.751 198.261 307.082 194.359L294.953 187.261L294.841 158.37C294.736 131.26 294.777 129.44 295.495 128.837C296.162 128.279 303.944 123.719 315.951 116.851C317.908 115.733 319.968 114.34 320.529 113.757L321.549 112.699V97.4002V82.1024L320.009 80.7264C316.64 77.7164 291.473 63.4672 289.526 63.4672C287.971 63.4672 286.033 64.4542 275.346 70.6922C268.537 74.6659 262.669 77.9172 262.305 77.9172C261.736 77.9172 251.43 72.1467 209.636 48.4296L202.362 44.3029L202.217 31.8907C202.107 22.3484 201.933 19.2109 201.466 18.3141C201.023 17.4641 196.937 14.8557 186.321 8.64539C171.115 -0.247735 169.749 -0.829985 167.424 0.592702ZM178.324 15.1468C182.76 17.7861 186.39 20.2181 186.39 20.5496C186.39 21.3497 170.453 30.7942 169.608 30.4946C167.418 29.7211 153.472 21.1298 153.472 20.5549C153.472 19.9408 168.698 10.4654 169.822 10.3804C170.061 10.3624 173.887 12.5065 178.324 15.1468ZM155.812 33.7746C159.44 35.9091 162.949 38.0256 163.609 38.4782L164.808 39.2996V46.2589C164.808 50.1912 164.628 53.3256 164.393 53.4659C164.166 53.604 160.34 51.5863 155.891 48.9842L147.804 44.254V37.0726C147.804 28.3718 147.113 28.6565 155.812 33.7746ZM192.177 36.9557C192.277 42.6379 192.185 43.8864 191.638 44.3284C189.712 45.8871 175.952 53.5934 175.438 53.4021C174.779 53.1546 174.533 40.3536 175.169 39.3994C175.728 38.5601 190.721 29.8805 191.404 30.0006C191.947 30.0962 192.078 31.2724 192.177 36.9557ZM153.53 58.8326C159.133 62.1274 163.963 65.0195 164.263 65.2596C164.866 65.7441 165.057 78.1711 164.474 79.0211C164.297 79.2782 162.714 79.6161 160.954 79.7723C138.329 81.7751 115.757 95.2115 102.491 114.573C101.251 116.385 99.9375 117.867 99.5756 117.867C98.975 117.867 87.9889 111.439 84.0388 108.777L82.4038 107.676V97.5522C82.4038 86.0102 82.1302 86.8794 86.5458 84.426C89.2784 82.9077 94.6488 79.8605 110.744 70.6975C119.777 65.555 126.57 61.6907 131.89 58.6689C134.767 57.0337 138.201 55.0596 139.52 54.2808C142.795 52.347 142.14 52.1335 153.53 58.8326ZM200.342 54.386C201.78 55.2339 204.723 56.9254 206.881 58.144C211.405 60.6983 235.071 74.1963 247.865 81.518C252.661 84.2624 256.729 86.7264 256.906 86.9941C257.673 88.1586 257.282 107.5 256.476 108.17C255.07 109.341 240.702 117.867 240.138 117.866C239.832 117.866 239.019 116.998 238.331 115.937C225.45 96.0615 201.976 81.7103 179.197 79.7819C177.398 79.6289 175.68 79.3154 175.381 79.0838C174.433 78.3528 174.627 66.1829 175.599 65.3733C176.998 64.2077 196.408 52.9134 197.072 52.8794C197.431 52.8602 198.903 53.5381 200.342 54.386ZM53.4338 75.4267C54.6198 76.1609 58.0424 78.1987 61.0398 79.955C68.5641 84.3644 68.4453 83.9033 62.8928 87.1184C60.5548 88.472 56.8052 90.6905 54.5598 92.0495L50.4789 94.5187L42.0248 89.5813C37.376 86.8655 33.5719 84.5525 33.5719 84.4399C33.5719 83.8969 34.5278 82.5922 34.9257 82.5922C35.1742 82.5922 36.2326 82.0184 37.2779 81.3172C38.3232 80.6159 39.3042 80.0422 39.4579 80.0422C39.6116 80.0422 40.5926 79.4684 41.6379 78.7672C42.6832 78.0659 43.6642 77.4922 43.8179 77.4922C43.9716 77.4922 44.9199 76.9662 45.927 76.3234C50.1769 73.6087 50.444 73.5769 53.4338 75.4267ZM296.728 78.1785C304.358 82.6687 306.071 83.7769 306.071 84.221C306.071 84.3846 302.345 86.6902 297.789 89.3465L289.508 94.1755L281.766 89.6567C277.509 87.1715 273.731 84.9541 273.371 84.7289C272.807 84.3761 272.836 84.2104 273.589 83.5123C274.495 82.674 288.983 74.0922 289.493 74.0922C289.653 74.0922 292.908 75.9314 296.728 78.1785ZM178.542 89.5919C200.534 92.6625 217.507 103.038 229.314 120.63C238.854 134.845 243.221 156.47 239.569 171.417C239.427 172.002 239.103 173.34 238.851 174.392C224.602 233.764 141.277 246.407 109.181 194.069C78.8166 144.555 120.67 81.5116 178.542 89.5919ZM37.2779 97.8444L45.1259 102.452L45.2458 109.597C45.3112 113.526 45.2 116.902 44.9962 117.101C44.6201 117.468 30.6671 109.559 28.8849 107.97C27.905 107.096 27.2979 94.3742 28.195 93.5008C28.7737 92.9356 29.5564 93.3096 37.2779 97.8444ZM72.547 93.8897C73.1519 95.425 72.8293 106.604 72.1535 107.545C71.385 108.613 57.1246 117.017 56.0782 117.017C55.4547 117.017 55.3719 116.175 55.3719 109.831V102.646L63.3288 97.9559C71.736 93.0004 72.1295 92.8272 72.547 93.8897ZM276.524 98.2109L284.271 102.78V109.898C284.271 114.076 284.101 117.017 283.86 117.017C283.35 117.017 269.08 108.683 268.03 107.772C266.877 106.771 266.87 93.6422 268.022 93.6422C268.437 93.6422 272.263 95.6981 276.524 98.2109ZM311.642 100.39C311.725 104.904 311.605 107.1 311.253 107.514C310.404 108.511 295.569 117.044 295.136 116.784C294.916 116.651 294.735 113.443 294.735 109.655V102.769L302.474 98.2077C312.194 92.4798 311.493 92.313 311.642 100.39ZM159.156 101.492C122.294 109.028 101.757 144.422 114.408 178.609C120.657 195.498 137.151 210.098 154.486 214.088C155.967 214.429 158.257 214.96 159.576 215.269C163.39 216.161 176.814 216.011 181.158 215.028C183.076 214.595 185.332 214.096 186.172 213.92C213.105 208.287 234.534 175.225 228.456 148.68C226.628 140.694 225.643 137.85 222.747 132.202C211.086 109.457 184.051 96.4015 159.156 101.492ZM180.286 111.425C223.306 120.69 233.064 175.378 195.887 198.852C185.624 205.332 169.124 208.069 158.785 205.007C151.841 202.951 149.443 202.038 146.171 200.21C121.089 186.194 113.102 155.44 128.539 132.317C136.295 120.699 147.712 113.584 163.282 110.668C166.591 110.047 175.79 110.457 180.286 111.425ZM86.282 121.61C95.886 127.561 95.5252 127.13 94.0025 130.837C87.4374 146.825 87.3546 168.675 93.7986 185.316C94.9856 188.382 95.0957 188.976 94.5703 189.475C93.6079 190.392 77.9294 199.894 77.4149 199.873C77.1609 199.862 72.1469 197.018 66.2718 193.552L55.5899 187.249L55.4776 158.159L55.3664 129.069L62.2356 125.099C66.0146 122.915 70.7735 120.125 72.8118 118.898C77.6351 115.995 77.0203 115.871 86.282 121.61ZM273.851 123.071L284.277 129.122L284.166 158.182L284.053 187.24L273.371 193.554C267.496 197.027 262.456 199.788 262.171 199.691C261.404 199.429 247.009 190.649 245.864 189.746L244.883 188.972L246.442 184.551C248.098 179.855 248.918 176.822 250.112 170.992C251.135 165.993 251.136 151.14 250.114 145.705C248.834 138.903 248.551 137.803 246.687 132.422C244.888 127.228 244.868 127.11 245.704 126.504C246.174 126.164 249.01 124.432 252.007 122.654C255.005 120.876 258.532 118.781 259.844 117.998C262.716 116.286 261.233 115.75 273.851 123.071ZM146.729 128.54C130.195 130.888 123.6 147.511 133.093 162.917C139.943 174.035 167.054 198.257 170.605 196.432C179.455 191.882 198.814 174.196 205.196 164.83C212.895 153.531 212.842 142.351 205.051 134.39C196.434 125.583 180.203 126.421 171.693 136.112C169.787 138.283 169.911 138.299 167.11 135.503C164.096 132.494 160.861 130.381 158.078 129.607C151.922 127.893 151.541 127.857 146.729 128.54ZM185.639 145.598C185.884 145.891 186.603 147.638 187.235 149.483C189.071 154.833 188.443 154.417 194.704 154.417C198.95 154.417 200.388 154.268 201.211 153.742C203.764 152.112 206.977 154.747 205.601 157.341C204.639 159.153 202.111 159.765 200.996 158.455C200.56 157.943 199.235 157.817 194.281 157.817C187.959 157.817 186.172 157.402 186.172 155.932C186.172 155.155 184.857 152.157 184.617 152.39C184.51 152.494 183.541 156.006 182.464 160.192C179.859 170.32 179.142 170.84 176.127 164.798C174.097 160.726 173.659 160.286 173.286 161.944C173.138 162.596 172.913 163.417 172.782 163.767C172.652 164.118 172.391 165.074 172.2 165.892C172.008 166.71 171.429 168.91 170.912 170.78C170.394 172.65 169.806 174.849 169.605 175.667C168.729 179.225 168.474 179.702 167.37 179.831C166.166 179.971 165.947 179.651 164.372 175.455C163.845 174.052 163.257 172.522 163.064 172.055C162.871 171.587 162.32 170.153 161.842 168.867C160.91 166.368 158.66 160.514 157.442 157.421C156.686 155.5 155.652 154.624 155.652 155.907C155.652 156.621 153.22 164.278 152.615 165.467C152.37 165.95 151.186 166.159 147.758 166.327C145.265 166.45 142.7 166.808 142.058 167.125C139.245 168.512 136.234 165.418 138.063 163.02C139.237 161.48 141.413 161.231 142.778 162.482C143.626 163.257 144.197 163.364 146.914 163.256L150.068 163.13L151.047 160.155C156.221 144.447 156.005 144.498 160.97 157.817C161.448 159.103 161.999 160.537 162.192 161.005C162.385 161.472 162.973 163.002 163.5 164.405C164.026 165.807 164.614 167.337 164.807 167.805C164.998 168.272 165.403 169.324 165.706 170.142C167.012 173.675 167.259 173.271 169.604 163.767C172.487 152.081 173.136 151.589 176.552 158.5C178.41 162.257 178.939 162.593 179.334 160.265C179.463 159.503 179.779 158.067 180.036 157.073C180.293 156.08 180.7 154.502 180.94 153.567C181.179 152.632 181.563 151.15 181.792 150.273C182.021 149.397 182.341 148.106 182.505 147.405C182.883 145.775 183.465 145.067 184.428 145.067C184.848 145.067 185.393 145.306 185.639 145.598ZM59.0005 200.668C63.4793 203.315 67.1438 205.642 67.1438 205.839C67.1438 206.134 54.3712 213.892 51.1656 215.543C50.3437 215.967 49.2559 215.452 42.2276 211.319C32.7184 205.725 33.1043 206.034 34.445 205.094C36.6533 203.547 50.3077 195.627 50.5759 195.738C50.7296 195.803 54.5206 198.021 59.0005 200.668ZM296.878 200.122C300.706 202.353 304.292 204.552 304.846 205.009L305.853 205.842L304.846 206.675C303.546 207.75 290.047 215.617 289.503 215.617C288.987 215.617 275.534 207.8 274.16 206.702C272.806 205.619 272.921 205.521 281.655 200.366C290.348 195.235 288.54 195.265 296.878 200.122ZM100.062 198.517C100.302 198.689 101.479 200.259 102.678 202.004C106.887 208.136 112.75 214.396 119.175 219.621C127.859 226.683 141.317 232.993 152.6 235.291C159.45 236.688 160.568 236.867 162.397 236.867C164.808 236.867 164.808 236.868 164.808 244.31V250.41L163.609 251.232C160.905 253.087 143.271 263.217 142.746 263.217C142.433 263.217 139.765 261.852 136.815 260.183C133.867 258.514 127.333 254.813 122.298 251.957C117.262 249.101 106.471 242.986 98.3178 238.368C90.1646 233.751 83.2485 229.671 82.9488 229.301C82.3035 228.506 82.1684 209.837 82.8006 208.864C83.1352 208.35 98.8333 198.297 99.4077 198.23C99.5276 198.217 99.822 198.345 100.062 198.517ZM248.541 203.323C258.193 209.293 257.239 207.572 257.239 219.017C257.239 230.347 257.82 229.081 250.808 233.019C243.672 237.025 238.569 239.922 216.713 252.372C206.534 258.171 197.879 262.999 197.48 263.101C196.729 263.293 176.346 251.644 175.395 250.48C174.725 249.662 174.635 238.876 175.287 237.689C175.607 237.106 176.209 236.865 177.358 236.859C178.859 236.851 182.367 236.299 187.698 235.232C206.572 231.455 226.7 217.928 237.478 201.78C240.117 197.826 239.518 197.743 248.541 203.323ZM36.831 219.496C46.1287 224.888 45.3439 223.749 45.3439 231.848C45.3439 240.082 46.1439 239.892 36.1051 234.044L28.3399 229.522V222.357C28.3399 216.986 28.474 215.192 28.874 215.192C29.1683 215.192 32.749 217.129 36.831 219.496ZM72.2777 222.547L72.3965 229.619L70.731 230.644C66.0222 233.541 56.7442 238.567 56.1032 238.567C55.325 238.567 54.9598 225.823 55.7054 224.695C56.1817 223.976 71.2139 215.204 71.7218 215.349C71.9834 215.425 72.2058 218.301 72.2777 222.547ZM276.326 219.912C280.336 222.274 283.761 224.425 283.938 224.693C284.508 225.559 284.337 238.567 283.756 238.567C283.044 238.567 268.484 230.03 267.827 229.228C267.256 228.533 267.013 216.431 267.558 215.901C268.2 215.274 269.329 215.789 276.326 219.912ZM311.642 222.105C311.786 229.576 311.902 229.313 307.313 231.936C305.312 233.08 301.89 235.041 299.711 236.292C294.369 239.36 294.734 239.685 294.742 231.873C294.749 223.972 294.32 224.848 299.749 221.674C302.147 220.272 305.385 218.343 306.943 217.387C311.456 214.619 311.498 214.663 311.642 222.105ZM178.152 264.105C182.563 266.699 186.172 269.065 186.172 269.366C186.172 269.665 182.529 272.055 178.076 274.675L169.982 279.439L162.271 274.939C158.031 272.463 154.267 270.254 153.908 270.029C153.343 269.676 153.372 269.509 154.126 268.803C154.914 268.064 169.49 259.392 169.943 259.392C170.047 259.392 173.741 261.513 178.152 264.105ZM156.216 283.058C165.823 288.654 164.808 287.227 164.808 295.132C164.808 298.822 164.63 301.949 164.412 302.08C164.011 302.321 161.549 301.014 152.822 295.928L148.022 293.131L147.902 286.036C147.757 277.423 147.005 277.693 156.216 283.058ZM191.84 285.95V292.959L189.551 294.401C184.327 297.693 175.924 302.273 175.635 301.988C175.187 301.546 174.661 291.244 174.998 289.497C175.268 288.089 189.329 278.992 191.295 278.953C191.709 278.944 191.84 280.621 191.84 285.95ZM113.578 332.212C100.453 334.002 94.833 349.231 103.989 358.194C106.267 360.423 107.566 361.392 108.278 361.392C108.595 361.392 108.989 361.523 109.153 361.683C110.401 362.9 119.887 363.719 120.554 362.667C120.702 362.433 121.198 362.242 121.656 362.242C124.335 362.242 127.847 359.176 126.581 357.941L125.658 357.041L123.681 358.366C122.594 359.096 121.31 359.692 120.828 359.692C120.346 359.692 119.83 359.883 119.682 360.117C118.761 361.571 110.88 360.016 107.886 357.791C106.224 356.554 103.768 353.286 103.768 352.31C103.768 351.956 103.572 351.549 103.332 351.405C102.793 351.08 102.751 344.658 103.281 343.643C103.493 343.237 103.935 342.331 104.262 341.63C105.082 339.874 109.198 335.892 110.192 335.892C110.639 335.892 111.224 335.678 111.493 335.417C113.044 333.905 121.274 334.98 124.193 337.076L125.653 338.123L126.564 337.235C129.076 334.786 120.116 331.32 113.578 332.212ZM73.0298 332.43C65.9928 333.683 60.1679 340.544 60.1679 347.58C60.1679 353.86 66.6577 362.242 71.5191 362.242C71.9616 362.242 72.4456 362.433 72.5938 362.667C72.9622 363.248 80.3284 363.206 81.8381 362.613C90.2965 359.294 93.2841 355.338 93.2972 347.447C93.3147 337.097 84.308 330.423 73.0298 332.43ZM0 347.792V363.092H7.71282C21.0151 363.092 25.592 361.466 26.3605 356.468C26.9415 352.69 25.9943 350.447 23.0327 348.595C20.4909 347.005 20.5039 347.182 22.7559 344.946C26.0531 341.671 25.1593 335.684 21.0947 333.819C20.4037 333.502 19.4968 333.074 19.0804 332.867C18.664 332.661 14.2005 332.492 9.16143 332.492H0V347.792ZM35.3159 347.792V363.092H45.7799H56.2439V361.817V360.542H48.1495C37.1656 360.542 38.3679 362.32 38.3679 346.077V332.492H36.8419H35.3159V347.792ZM136.032 347.792V363.092H137.776H139.52V358.938V354.783L142.681 351.736C146.434 348.119 145.394 347.687 152.601 355.867C155.586 359.256 158.265 362.269 158.553 362.561C159.112 363.127 162.202 363.309 162.176 362.773C162.168 362.598 160.687 360.733 158.886 358.63C157.085 356.526 155.375 354.514 155.086 354.161C153.694 352.451 150.622 348.83 150.404 348.642C150.27 348.525 149.738 347.841 149.224 347.122L148.288 345.814L152.421 341.597C154.694 339.277 157.547 336.28 158.761 334.936L160.97 332.492H159.471C158.099 332.492 157.243 333.213 149.384 340.992C144.66 345.667 140.508 349.492 140.157 349.492C139.619 349.492 139.52 348.169 139.52 340.992V332.492H137.776H136.032V347.792ZM169.604 347.792V363.092H171.119H172.635L172.754 355.973L172.874 348.855H182.684H192.494L192.613 355.973L192.732 363.092H194.466H196.2V347.792V332.492H194.466H192.733L192.613 339.186L192.494 345.88L183.175 345.994C171.671 346.137 172.656 346.808 172.656 338.815V332.492H171.13H169.604V347.792ZM207.535 347.792V363.092H218.871H230.207V361.817V360.542H221.105C210.121 360.542 210.956 361.08 211.118 354.108L211.241 348.855L219.416 348.739L227.591 348.623V347.367V346.111L219.416 345.995L211.241 345.88V340.567V335.255L220.288 335.14L229.335 335.025V333.759V332.492H218.435H207.535V347.792ZM248.171 333.002C247.883 333.283 247.647 333.677 247.647 333.879C247.647 334.08 247.039 335.524 246.296 337.087C245.552 338.65 244.592 340.695 244.163 341.63C243.732 342.565 242.869 344.429 242.244 345.773C241.619 347.117 240.596 349.317 239.971 350.661C239.346 352.005 238.438 353.965 237.955 355.017C237.471 356.069 236.511 358.056 235.821 359.433C234.18 362.71 234.21 363.092 236.108 363.092C237.187 363.092 237.722 362.87 237.897 362.348C238.176 361.522 238.823 360.029 240.177 357.086C241.349 354.537 241.117 354.592 250.705 354.592H258.925L259.826 355.827C260.322 356.506 260.727 357.234 260.727 357.447C260.727 357.808 262.068 360.826 262.858 362.242C263.053 362.593 263.928 362.939 264.801 363.011C266.641 363.164 266.643 363.208 264.555 358.842C263.829 357.323 262.891 355.315 262.471 354.38C262.052 353.445 261.071 351.341 260.291 349.705C259.512 348.068 258.528 345.965 258.104 345.03C257.177 342.987 255.565 339.506 254.07 336.317C253.467 335.031 252.86 333.645 252.722 333.236C252.423 332.35 249.02 332.174 248.171 333.002ZM272.935 347.792V363.092H283.399H293.863V361.817V360.542H285.666C279.872 360.542 277.316 360.392 276.947 360.032C276.562 359.657 276.423 355.952 276.423 346.007V332.492H274.679H272.935V347.792ZM296.043 333.767V335.042H301.493H306.943V349.067V363.092H308.682H310.419L310.535 349.173L310.649 335.255L316.208 335.136L321.767 335.017V333.754V332.492H308.905H296.043V333.767ZM328.307 347.792V363.092H329.822H331.338L331.457 355.973L331.577 348.855H341.387H351.197L351.317 355.973L351.436 363.092H353.17H354.903V347.792V332.492H353.17H351.437L351.317 339.186L351.197 345.88L341.879 345.994C330.375 346.137 331.359 346.808 331.359 338.815V332.492H329.833H328.307V347.792ZM18.7262 335.748C21.6855 337.383 22.5815 340.583 20.8037 343.161C19.051 345.701 17.4323 346.131 10.1195 345.997L3.70599 345.88L3.58282 340.804C3.51415 338.013 3.56756 335.453 3.70054 335.116C4.09948 334.103 16.7097 334.633 18.7262 335.748ZM83.1472 335.988C90.5134 339.321 92.7043 349.665 87.3567 355.86C85.8722 357.58 82.6926 359.692 81.5885 359.692C81.1056 359.692 80.59 359.883 80.4418 360.117C79.8009 361.127 73.8942 360.515 70.6318 359.102C69.1418 358.456 65.7497 355.087 65.0216 353.53C64.6946 352.828 64.2532 351.922 64.0406 351.516C63.5414 350.559 63.5414 344.6 64.0406 343.643C64.2532 343.237 64.6946 342.331 65.0216 341.63C65.8424 339.874 69.9582 335.892 70.9523 335.892C71.3992 335.892 71.9518 335.714 72.1796 335.496C73.3045 334.418 80.3808 334.736 83.1472 335.988ZM251.381 337.179C251.933 338.125 253.096 340.628 254.934 344.817C255.94 347.113 257.294 350.052 257.714 350.852C258.575 352.496 257.172 352.892 250.486 352.892C241.415 352.892 241.782 353.357 245.132 346.092C245.617 345.04 246.177 343.797 246.376 343.33C249.484 336.049 250.206 335.161 251.381 337.179ZM20.153 349.652C24.5544 352.036 24.1304 359.688 19.5982 359.692C19.2265 359.692 18.7207 359.889 18.4755 360.128C18.1953 360.401 15.3417 360.52 10.8673 360.446L3.70599 360.33L3.58282 355.04C3.41932 347.992 2.65523 348.642 11.0929 348.642C17.8552 348.642 18.4013 348.703 20.153 349.652Z" fill="#2B7DB4"/>
</svg>
