<svg width="330" height="354" viewBox="0 0 330 354" fill="none" xmlns="http://www.w3.org/2000/svg">
<path fill-rule="evenodd" clip-rule="evenodd" d="M162.654 0.519944C154.285 5.06794 131.499 19.2169 130.848 20.2699C130.097 21.4859 130.054 22.2869 130.054 35.1319C130.054 45.3839 129.932 48.8649 129.554 49.3499C129.135 49.8879 125.728 51.9629 116.054 57.5709C115.284 58.0179 108.714 61.8479 101.454 66.0839C94.1943 70.3199 86.6343 74.7249 84.6543 75.8729C82.6743 77.0209 77.4623 80.0529 73.0713 82.6109C68.6803 85.1679 64.8723 87.2609 64.6093 87.2609C64.3463 87.2609 60.4693 85.0709 55.9933 82.3939C32.7033 68.4649 36.6073 69.1139 23.4343 76.9859C18.1653 80.1349 11.4373 84.1399 8.48433 85.8859C5.53033 87.6319 2.51533 89.6519 1.78433 90.3739L0.454329 91.6879V108.456C0.454329 119.3 0.602331 125.548 0.873331 126.142C1.39033 127.275 1.42733 127.299 16.2043 136.159C22.8313 140.133 28.5693 143.655 28.9543 143.985C29.6103 144.547 29.6543 146.601 29.6543 176.527C29.6543 206.453 29.6103 208.507 28.9543 209.067C28.5693 209.396 22.3323 213.219 15.0953 217.563C7.38633 222.19 1.58733 225.929 1.09533 226.59C-0.191669 228.318 -0.426669 259.907 0.832331 261.947C1.76533 263.459 1.13533 263.047 19.2483 273.979L33.4413 282.545L35.4483 282.367C37.2083 282.212 39.0923 281.202 50.8203 274.126C58.1723 269.69 64.4003 266.061 64.6623 266.061C64.9233 266.061 67.6383 267.53 70.6953 269.325C77.8123 273.505 82.7243 276.375 84.2943 277.272C84.9773 277.662 86.8673 278.783 88.4943 279.764C90.1223 280.745 93.1643 282.537 95.2543 283.746C98.8563 285.831 102.155 287.762 109.454 292.061C111.214 293.097 114.274 294.894 116.254 296.054C118.234 297.214 120.506 298.545 121.303 299.012C122.099 299.479 124.3 300.761 126.193 301.861L129.634 303.861L129.644 317.581C129.655 332.019 129.709 332.501 131.517 334.137C132.099 334.664 144.934 342.539 152.254 346.861C152.914 347.25 155.568 348.85 158.151 350.415C162.306 352.933 163.077 353.261 164.839 353.261C167.076 353.261 166.732 353.429 176.254 347.679C179.994 345.42 183.702 343.187 184.494 342.717C195.526 336.162 198.645 334.129 199.307 333.061C199.995 331.952 200.051 330.815 200.053 318.003L200.054 304.144L201.954 302.954C203.623 301.907 204.886 301.162 210.254 298.058C210.914 297.676 213.029 296.441 214.954 295.312C216.879 294.184 220.029 292.338 221.954 291.21C223.879 290.081 225.994 288.847 226.654 288.466C227.314 288.085 228.844 287.182 230.054 286.461C231.264 285.74 232.794 284.837 233.454 284.456C234.114 284.075 236.274 282.817 238.254 281.661C240.234 280.505 242.394 279.245 243.054 278.861C244.69 277.91 250.526 274.489 254.654 272.061C263.576 266.813 265.018 266.038 265.511 266.227C265.802 266.339 269.509 268.529 273.747 271.093C277.986 273.657 282.084 276.115 282.854 276.555C283.624 276.995 284.732 277.694 285.316 278.108C285.9 278.522 286.497 278.861 286.644 278.861C286.79 278.861 287.712 279.413 288.693 280.088C293.643 283.494 295.293 283.481 300.948 279.993C302.766 278.872 304.884 277.599 305.654 277.165C306.424 276.731 307.234 276.234 307.454 276.061C307.674 275.888 308.484 275.387 309.254 274.947C316.646 270.727 327.674 263.816 328.554 262.853L329.654 261.648V244.468V227.288L328.327 225.96C327.597 225.23 321.162 221.136 314.027 216.862C306.892 212.588 300.921 208.904 300.759 208.676C300.596 208.448 300.506 193.863 300.559 176.265L300.654 144.269L314.054 136.221C321.424 131.795 327.949 127.687 328.554 127.092L329.654 126.011V108.974V91.9369L328.672 90.6489C327.757 89.4489 324.331 87.3129 302.466 74.3049C293.905 69.2109 296.873 68.4039 274.061 82.0309C264.249 87.8919 265.76 87.7029 259.223 83.8819C248.225 77.4539 244.216 75.1199 225.854 64.4599C215.514 58.4569 205.794 52.8269 204.254 51.9469C199.603 49.2929 200.054 51.0269 200.054 35.7859C200.054 17.9419 202.352 21.2959 181.775 9.10994C165.764 -0.372058 164.961 -0.733056 162.654 0.519944ZM173.792 17.1319C181.672 21.8539 182.832 22.6459 182.848 23.3159C182.857 23.7009 165.615 34.0609 164.965 34.0609C164.27 34.0609 148.182 24.5889 146.897 23.4229C146.411 22.9819 154.584 17.7339 163.854 12.5339C165.06 11.8569 164.758 11.7169 173.792 17.1319ZM188.854 41.4229C188.854 48.2729 188.776 49.2049 188.154 49.7419C186.755 50.9499 171.818 59.6609 171.145 59.6609C170.514 59.6609 170.454 58.9869 170.454 51.8949V44.1299L179.311 38.7069C184.182 35.7239 188.322 33.3789 188.511 33.4959C188.7 33.6129 188.854 37.1799 188.854 41.4229ZM150.854 38.8069L159.054 43.8889L159.162 51.7749C159.295 61.3939 160.309 61.1049 149.454 54.5409L141.054 49.4609L140.946 41.5609L140.837 33.6609L141.746 33.6929C142.245 33.7109 146.344 36.0119 150.854 38.8069ZM147.497 66.3299L159.254 73.3999V80.9119V88.4229L157.754 88.8399C156.929 89.0689 155.624 89.2609 154.854 89.2659C134.041 89.4089 105.61 106.906 91.3303 128.361C90.1223 130.176 88.8993 131.661 88.6113 131.661C87.9903 131.661 70.7873 120.961 70.3603 120.309C69.9763 119.723 69.9773 98.0019 70.3613 97.3979C70.6173 96.9959 75.9693 93.7759 87.8543 86.8739C89.6143 85.8519 96.5443 81.7959 103.254 77.8609C129.164 62.6669 135.047 59.2609 135.387 59.2609C135.581 59.2609 141.03 62.4419 147.497 66.3299ZM198.66 61.5829C200.857 62.8609 207.514 66.7629 213.454 70.2549C219.394 73.7469 227.268 78.3729 230.951 80.5369C234.635 82.6999 240.755 86.2959 244.551 88.5289C248.348 90.7619 252.984 93.4759 254.854 94.5599C260.168 97.6399 259.654 96.1049 259.654 108.903V120.02L258.354 120.987C255.853 122.846 241.936 131.369 241.326 131.415C240.972 131.441 239.51 129.747 237.882 127.424C222.222 105.07 200.291 91.9729 173.651 89.0679C170.255 88.6979 170.422 89.1379 170.545 80.8319L170.654 73.4609L182.45 66.3609C188.937 62.4559 194.34 59.2609 194.456 59.2609C194.572 59.2609 196.464 60.3059 198.66 61.5829ZM44.2793 88.1319C49.9703 91.6299 52.8543 93.6299 52.8543 94.0769C52.8543 94.6529 40.3093 102.595 36.0023 104.746C35.0023 105.246 34.5153 105.012 26.2023 100.044C16.5143 94.2539 16.2073 93.9289 18.9323 92.3659C19.8793 91.8229 23.8043 89.4619 27.6543 87.1209C31.5043 84.7789 34.8903 82.8629 35.1793 82.8619C35.4683 82.8609 39.5633 85.2329 44.2793 88.1319ZM300.11 86.1089C303.049 87.8959 306.624 90.0659 308.054 90.9309C311.858 93.2329 312.722 93.9499 312.254 94.4179C311.624 95.0479 295.159 104.861 294.732 104.861C293.957 104.861 276.82 94.3619 276.952 93.9669C277.027 93.7419 278.43 92.7409 280.071 91.7409C289.825 85.7969 294.661 82.8639 294.71 82.8629C294.74 82.8619 297.17 84.3229 300.11 86.1089ZM173.525 100.062C206.37 104.275 232.595 127.769 239.604 159.261C239.824 160.251 240.109 161.511 240.236 162.061C242.371 171.301 241.951 186.291 239.282 196.061C239.071 196.831 238.732 198.091 238.528 198.861C238.324 199.631 237.847 201.071 237.468 202.061C237.089 203.051 236.647 204.221 236.484 204.661C228.192 227.133 204.154 247.547 180.927 251.844C179.237 252.156 176.789 252.603 175.487 252.836C172.403 253.39 157.001 253.385 153.878 252.83C152.545 252.593 150.464 252.223 149.254 252.007C144.478 251.155 132.947 247.015 129.136 244.784C128.082 244.166 127.139 243.661 127.04 243.661C126.942 243.661 125.555 242.824 123.958 241.801C105.546 230.009 92.7273 211.111 89.2693 190.661C89.0093 189.121 88.6293 186.886 88.4253 185.694C87.9293 182.797 87.9513 169.214 88.4573 166.234C89.9633 157.361 91.1913 152.94 93.9503 146.461C107.157 115.442 140.744 95.8579 173.525 100.062ZM20.9283 109.585L29.4543 114.708L29.5623 122.785C29.6563 129.774 29.5893 130.861 29.0663 130.861C28.0733 130.861 11.5233 120.62 11.2043 119.809C10.8483 118.903 10.7543 105.987 11.0973 105.094C11.5103 104.017 12.1523 104.31 20.9283 109.585ZM59.1683 111.666C59.3123 120.506 59.4763 119.996 55.7573 122.283C54.0503 123.333 50.8543 125.306 48.6543 126.667C41.8183 130.897 41.2973 131.15 40.8533 130.461C39.9993 129.137 40.3683 115.463 41.2793 114.638C42.7383 113.318 57.8323 104.472 58.4543 104.574C58.9563 104.655 59.0733 105.818 59.1683 111.666ZM280.095 109.601L288.654 114.742L288.762 122.801C288.822 127.234 288.79 130.861 288.691 130.861C288.487 130.861 276.295 123.517 273.007 121.414L270.854 120.036V112.881C270.854 106.723 271.011 104.461 271.437 104.461C271.491 104.461 275.387 106.774 280.095 109.601ZM318.454 112.376V120.291L315.954 121.76C314.579 122.568 310.664 124.928 307.254 127.005C303.844 129.082 300.919 130.698 300.754 130.597C300.589 130.496 300.454 126.934 300.454 122.682V114.95L309.154 109.712C313.939 106.83 317.989 104.47 318.154 104.467C318.319 104.464 318.454 108.023 318.454 112.376ZM158.254 112.317C136.218 114.815 117.34 127.763 107.303 147.261C85.3243 189.96 116.776 241.261 164.933 241.261C189.045 241.261 212.427 226.861 222.74 205.661C224.691 201.651 226.689 196.198 227.577 192.461C227.812 191.471 228.113 190.211 228.245 189.661C229.896 182.802 229.892 171.225 228.236 164.061C228.109 163.511 227.815 162.251 227.584 161.261C220.381 130.471 189.627 108.76 158.254 112.317ZM175.454 124.225C186.891 127.011 194.817 131.333 202.4 138.915C215.683 152.198 221.62 173.789 216.464 190.061C216.289 190.611 215.915 191.871 215.631 192.861C215.347 193.851 214.966 194.832 214.784 195.041C214.603 195.25 214.454 195.647 214.454 195.923C214.454 198.711 207.156 209.752 202.019 214.738C170.313 245.505 117.272 226.727 111.999 182.869C108.997 157.896 123.653 134.48 147.454 126.222C152.175 124.584 153.839 124.179 158.654 123.496C161.176 123.138 173.119 123.656 175.454 124.225ZM74.4543 136.248C83.6563 141.983 83.7823 142.088 83.1863 143.602C80.9853 149.19 78.8473 156.714 78.0543 161.661C77.7903 163.311 77.4123 165.639 77.2143 166.834C75.6033 176.562 77.6463 194.386 81.6403 205.461C83.8933 211.709 84.3363 210.817 76.5773 215.642C72.8793 217.941 68.8293 220.506 67.5763 221.342C64.4863 223.402 65.2463 223.674 52.4543 215.93L41.0543 209.029L40.7963 177.045C40.6553 159.454 40.6813 144.802 40.8553 144.485C41.6773 142.987 64.5783 130.05 65.4283 130.603C65.8823 130.898 69.9443 133.438 74.4543 136.248ZM266.771 131.088C267.263 131.432 268.069 131.927 268.563 132.188C269.056 132.448 273.821 135.271 279.153 138.461L288.845 144.261L288.75 176.609L288.654 208.958L281.054 213.556C276.874 216.086 272.914 218.471 272.254 218.858C271.594 219.245 269.842 220.304 268.361 221.211C265.07 223.228 265.42 223.233 262.149 221.118C260.667 220.16 257.654 218.246 255.454 216.866C248.006 212.195 246.454 211.168 246.458 210.914C246.461 210.775 247.092 208.885 247.86 206.715C249.901 200.951 251.3 195.336 252.509 188.061C253.147 184.219 253.135 169.248 252.49 165.261C251.639 159.999 251.161 157.517 250.566 155.261C250.246 154.051 249.844 152.521 249.671 151.861C249.499 151.201 248.779 149.041 248.07 147.061C247.362 145.081 246.693 143.083 246.583 142.622C246.413 141.907 247.144 141.319 251.519 138.652C266.746 129.368 265.324 130.074 266.771 131.088ZM139.654 143.301C133.426 144.527 130.675 145.7 127.543 148.462C125.048 150.663 122.831 153.964 121.362 157.661C118.453 164.986 120.224 175.298 125.795 183.461C130.547 190.425 144.814 205.09 153.035 211.461C164.908 220.663 164.179 220.515 171.327 215.151C198.741 194.577 212.081 175.462 209.07 161.071C205.169 142.423 180.76 136.493 167.424 150.953C166.338 152.13 165.263 153.208 165.035 153.349C164.806 153.491 163.062 152.111 161.158 150.283C154.969 144.339 147.198 141.816 139.654 143.301ZM182.333 163.261C182.597 164.031 183.414 166.371 184.148 168.461L185.483 172.261L191.498 172.371C197.105 172.474 197.561 172.426 198.245 171.671C200.506 169.172 204.761 172.017 203.445 175.147C202.47 177.467 200.351 177.887 198.139 176.201L196.749 175.14L190.47 175.399C183.284 175.695 183.125 175.632 182.054 172.061C180.896 168.196 180.835 168.294 178.449 177.911C175.428 190.081 175.028 190.394 171.579 183.272C169.368 178.707 169.127 178.401 168.654 179.561C168.374 180.246 168.146 181.093 165.71 190.461C163.078 200.585 163.137 200.44 161.622 200.455C160.86 200.462 160.378 199.52 158.454 194.261C157.971 192.941 157.431 191.501 157.254 191.061C157.077 190.621 156.537 189.181 156.054 187.861C155.571 186.541 155.031 185.101 154.854 184.661C154.677 184.221 154.137 182.781 153.654 181.461C153.171 180.141 152.628 178.701 152.446 178.261C152.265 177.821 151.698 176.336 151.187 174.961C150.025 171.834 149.988 171.841 148.859 175.361C145.308 186.436 146.301 185.258 140.505 185.274C137.05 185.283 135.654 185.438 135.078 185.874C133.116 187.358 129.654 185.761 129.654 183.372C129.654 180.621 133.841 179.125 135.572 181.257C136.187 182.015 136.602 182.085 139.814 181.979L143.373 181.861L144.57 178.061C148.356 166.039 148.588 165.47 149.753 165.335C151.01 165.19 151.173 165.479 153.654 172.261C154.137 173.581 154.677 175.021 154.854 175.461C155.031 175.901 155.571 177.341 156.054 178.661C156.537 179.981 157.077 181.421 157.254 181.861C157.431 182.301 157.971 183.741 158.454 185.061C158.937 186.381 159.476 187.821 159.653 188.261C159.829 188.701 160.2 189.691 160.478 190.461C161.524 193.365 161.832 193.202 162.852 189.204C164 184.701 165.928 177.308 166.575 174.924C167.686 170.836 169.232 170.779 171.038 174.759C174.449 182.272 174.148 182.18 175.621 176.161C176.799 171.346 177.646 168.068 178.081 166.633C178.286 165.957 178.454 165.093 178.454 164.713C178.454 161.725 181.427 160.613 182.333 163.261ZM44.0783 223.875C52.9463 229.203 53.2533 229.439 52.4013 230.274C51.6233 231.037 36.3353 240.322 35.4163 240.589C34.4533 240.87 17.4543 230.514 17.4543 229.648C17.4543 228.985 33.8313 218.942 34.9923 218.892C35.3993 218.875 39.4873 221.117 44.0783 223.875ZM303.726 224.104C313.234 229.816 313.032 229.635 311.154 230.763C310.439 231.193 308.324 232.495 306.454 233.657C299.366 238.061 295.216 240.461 294.689 240.461C294.389 240.461 291.738 238.999 288.798 237.213C285.859 235.426 282.284 233.254 280.854 232.387C277.591 230.407 276.661 229.721 276.906 229.476C277.353 229.028 294.286 218.909 294.626 218.886C294.831 218.872 298.926 221.22 303.726 224.104ZM89.4423 222.161C101.04 238.855 109.28 246.63 123.653 254.439C130.791 258.317 136.864 260.552 145.454 262.461C146.444 262.681 148.019 263.034 148.954 263.245C151.082 263.726 155.802 264.443 157.654 264.567L159.054 264.661L159.163 272.073L159.271 279.485L147.472 286.573C140.982 290.471 135.533 293.66 135.363 293.658C135.096 293.655 133.325 292.673 127.354 289.214C126.639 288.8 125.469 288.124 124.754 287.712C124.039 287.301 121.834 286.017 119.854 284.861C114.985 282.017 113.367 281.075 99.3543 272.929C96.7693 271.426 91.7743 268.522 88.2543 266.475C84.7343 264.429 81.3143 262.443 80.6543 262.062C75.8823 259.31 74.0163 258.21 72.3543 257.168L70.4543 255.978V244.262C70.4543 234.005 70.5323 232.517 71.0793 232.307C71.7413 232.053 79.6703 227.023 85.0543 223.442C88.7893 220.957 88.6363 221.002 89.4423 222.161ZM245.434 223.998C247.425 225.284 251.189 227.714 253.799 229.398C256.409 231.083 258.704 232.461 258.899 232.461C259.098 232.461 259.254 237.643 259.254 244.215V255.969L258.28 256.607C257.744 256.959 256.709 257.586 255.98 258.002C255.25 258.418 253.034 259.705 251.054 260.861C246.689 263.41 246.321 263.625 240.154 267.211C237.459 268.779 233.049 271.343 230.354 272.911C223.608 276.834 223.51 276.891 219.454 279.269C213.609 282.695 206.933 286.582 202.654 289.049C200.454 290.317 197.806 291.888 196.769 292.54C194.633 293.883 194.035 293.824 191.382 292.006C190.462 291.376 189.595 290.861 189.454 290.861C189.313 290.861 188.413 290.321 187.454 289.661C186.495 289.001 185.595 288.461 185.454 288.461C185.313 288.461 184.413 287.921 183.454 287.261C182.495 286.601 181.595 286.061 181.454 286.061C181.313 286.061 180.413 285.521 179.454 284.861C178.495 284.201 177.595 283.661 177.454 283.661C177.313 283.661 176.413 283.121 175.454 282.461C174.495 281.801 173.579 281.261 173.42 281.261C173.26 281.261 172.528 280.802 171.792 280.241L170.454 279.22V272.321C170.454 264.671 170.52 264.461 172.914 264.461C173.739 264.461 175.278 264.295 176.334 264.093C177.39 263.891 179.424 263.505 180.854 263.236C183.06 262.82 186.498 261.989 192.254 260.479C195.816 259.544 205.476 255.142 209.454 252.641C215.302 248.964 217.001 247.858 217.407 247.463C217.653 247.224 218.273 246.739 218.786 246.385C224.305 242.573 234.219 231.838 238.665 224.861C241.152 220.959 240.797 221.004 245.434 223.998ZM21.1583 245.591L29.4543 250.665L29.5633 258.363C29.6973 267.863 30.5813 267.625 19.6163 261.038L11.2543 256.015V248.011C11.2543 240.176 11.2713 240.012 12.0583 240.262C12.5003 240.403 16.5953 242.801 21.1583 245.591ZM58.7623 248.346L58.6543 256.231L50.0983 261.346C45.3933 264.159 41.3883 266.461 41.1983 266.461C40.4823 266.461 40.7863 251.015 41.5153 250.41C42.7603 249.376 57.8533 240.464 58.3623 240.463C58.7603 240.461 58.8473 242.177 58.7623 248.346ZM273.936 241.605C274.991 242.233 277.384 243.699 279.254 244.861C281.124 246.023 283.554 247.509 284.654 248.164C285.754 248.818 287.149 249.705 287.754 250.135L288.854 250.915V258.488C288.854 267.305 289.257 266.859 284.089 263.765C281.98 262.502 279.779 261.197 279.197 260.865C270.023 255.622 270.867 256.942 270.859 247.828C270.853 239.54 270.766 239.714 273.936 241.605ZM318.454 248.187V255.914L309.971 260.998C305.305 263.795 301.251 265.992 300.962 265.881C300.548 265.722 300.459 264.081 300.545 258.173L300.654 250.666L305.454 247.747C308.094 246.141 310.524 244.714 310.854 244.577C311.184 244.439 312.206 243.817 313.126 243.194C314.046 242.571 314.946 242.057 315.126 242.052C315.306 242.047 315.904 241.691 316.454 241.261C318.411 239.73 318.454 239.88 318.454 248.187ZM166.897 290.632C167.682 291.166 168.939 291.952 169.69 292.378C170.44 292.805 172.584 294.104 174.454 295.265C176.324 296.426 178.889 297.989 180.154 298.738C182.947 300.391 182.999 300.861 180.554 302.313C179.509 302.933 178.19 303.715 177.624 304.051C172.332 307.184 170.262 308.418 167.854 309.873C165.606 311.233 164.896 311.488 164.254 311.171C161.172 309.646 147.254 301.003 147.254 300.614C147.254 300.347 148.019 299.69 148.954 299.152C149.889 298.614 152.814 296.855 155.454 295.242C166.208 288.672 164.83 289.227 166.897 290.632ZM150.654 316.396L159.054 321.491L159.162 329.376C159.232 334.425 159.127 337.261 158.872 337.261C158.491 337.261 156.409 336.044 146.054 329.766L141.454 326.978L141.345 319.632C141.237 312.406 141.32 311.241 141.941 311.281C142.113 311.292 146.034 313.594 150.654 316.396ZM188.763 318.842C188.891 327.381 189.322 326.447 183.702 329.813C177.084 333.776 173.95 335.704 172.74 336.553C170.593 338.061 170.453 337.633 170.46 329.574C170.463 325.552 170.598 322.055 170.76 321.802C171.193 321.126 187.785 311.267 188.254 311.407C188.496 311.48 188.697 314.408 188.763 318.842Z" fill="#2679AD"/>
</svg>
