<?xml version="1.0" standalone="no"?>
<!DOCTYPE svg PUBLIC "-//W3C//DTD SVG 20010904//EN"
 "http://www.w3.org/TR/2001/REC-SVG-20010904/DTD/svg10.dtd">
<svg version="1.0" xmlns="http://www.w3.org/2000/svg"
 width="2450.000000pt" height="1572.000000pt" viewBox="0 0 2450.000000 1572.000000"
 preserveAspectRatio="xMidYMid meet">

<g transform="translate(0.000000,1572.000000) scale(0.100000,-0.100000)"
fill="#000000" stroke="none">
<path d="M12322 15629 c-29 -24 -52 -48 -52 -55 0 -10 -27 -14 -102 -16 l-103
-3 -3 -192 -2 -193 -28 0 c-40 0 -54 -13 -50 -46 3 -26 7 -29 41 -32 l37 -3 0
-80 c0 -76 1 -80 26 -89 35 -14 480 -13 505 0 21 12 25 40 7 58 -9 9 -76 12
-240 12 l-228 0 0 50 0 50 243 2 242 3 3 23 c7 50 -3 52 -254 52 l-235 0 3
158 3 157 230 3 c126 1 233 6 238 11 5 5 7 21 3 35 l-6 26 -117 0 -117 0 33
34 c38 39 38 70 0 74 -18 2 -41 -10 -77 -39z"/>
<path d="M4226 15564 c-3 -9 -6 -157 -6 -330 0 -282 2 -315 16 -321 9 -3 24
-2 33 4 14 9 17 45 21 262 l5 252 249 -257 c137 -141 259 -259 270 -264 42
-15 45 6 46 332 0 294 -1 308 -19 318 -25 13 -27 13 -45 -6 -14 -13 -16 -51
-16 -262 l0 -246 -246 252 c-249 255 -296 296 -308 266z"/>
<path d="M13386 15564 c-3 -9 -6 -157 -6 -330 0 -282 2 -315 16 -321 9 -3 24
-2 33 4 14 9 17 45 21 262 l5 251 249 -256 c137 -141 259 -259 270 -264 42
-15 45 6 46 332 0 294 -1 308 -19 318 -25 13 -27 13 -45 -6 -14 -13 -16 -51
-16 -262 l0 -247 -246 253 c-248 255 -296 296 -308 266z"/>
<path d="M16036 15564 c-3 -9 -6 -157 -6 -330 0 -282 2 -315 16 -321 9 -3 24
-2 33 4 14 9 16 43 19 262 l2 252 252 -256 c139 -142 261 -261 273 -265 41
-15 44 7 45 327 0 261 -2 304 -16 317 -18 19 -20 19 -45 6 -18 -10 -19 -24
-19 -263 l-1 -252 -252 257 c-138 141 -262 262 -274 267 -16 8 -22 7 -27 -5z"/>
<path d="M19211 15557 c-8 -16 -11 -108 -9 -326 3 -277 5 -305 21 -315 12 -8
22 -8 35 0 15 10 17 36 20 260 l2 249 271 -270 270 -270 15 34 c11 26 14 95
14 325 0 160 -4 296 -8 302 -11 17 -35 22 -54 12 -16 -8 -18 -31 -19 -261 l0
-252 -252 256 c-139 142 -261 262 -273 268 -18 8 -23 6 -33 -12z"/>
<path d="M8492 15559 c-111 -22 -222 -101 -270 -194 -22 -41 -27 -64 -27 -125
0 -65 4 -82 29 -128 149 -269 600 -265 733 7 56 113 29 245 -68 336 -101 94
-250 133 -397 104z m215 -84 c137 -41 225 -168 195 -282 -50 -186 -325 -265
-513 -147 -185 116 -146 345 74 424 64 24 174 26 244 5z"/>
<path d="M10132 15559 c-111 -22 -222 -101 -270 -194 -56 -110 -26 -253 74
-345 193 -177 547 -127 662 95 21 41 26 64 26 125 0 61 -5 84 -26 125 -78 151
-274 232 -466 194z m260 -102 c208 -102 208 -332 -1 -434 -50 -25 -67 -28
-156 -28 -89 0 -107 3 -160 28 -33 16 -73 40 -89 55 -37 35 -76 117 -76 162 0
65 48 143 121 198 78 59 260 68 361 19z"/>
<path d="M12940 15556 c-79 -17 -148 -53 -200 -106 -62 -61 -83 -110 -88 -198
-4 -66 -1 -79 27 -137 84 -169 317 -247 525 -175 76 26 118 56 114 83 -6 40
-30 42 -104 6 -64 -32 -75 -34 -169 -34 -87 0 -107 3 -157 27 -77 36 -134 97
-154 164 -14 49 -14 59 0 107 21 72 64 120 144 159 62 31 74 33 167 33 93 0
104 -2 162 -33 88 -45 123 -41 109 13 -4 17 -24 33 -69 54 -100 50 -197 61
-307 37z"/>
<path d="M14582 15559 c-111 -22 -222 -101 -270 -194 -36 -69 -38 -179 -4
-243 79 -150 257 -232 438 -204 123 19 204 63 204 109 0 38 -26 38 -97 2 -64
-32 -72 -34 -172 -34 -98 0 -111 2 -165 30 -186 94 -208 280 -48 402 97 74
254 84 375 25 71 -35 93 -37 111 -10 14 23 -13 51 -78 82 -87 41 -197 54 -294
35z"/>
<path d="M15240 15553 c-117 -32 -209 -104 -251 -197 -29 -64 -26 -178 7 -244
82 -165 331 -246 527 -172 216 82 298 292 183 465 -85 128 -294 194 -466 148z
m275 -92 c177 -79 218 -265 85 -385 -60 -54 -121 -79 -211 -84 -243 -14 -417
178 -316 350 33 57 76 92 154 124 50 21 70 24 148 21 66 -2 103 -9 140 -26z"/>
<path d="M17088 15558 c-8 -7 -68 -97 -132 -200 l-118 -188 -38 0 c-33 0 -70
-19 -70 -36 0 -18 24 -44 40 -44 17 0 15 -8 -21 -62 -44 -69 -49 -111 -13
-116 27 -4 37 7 97 102 l48 76 228 0 228 0 54 -86 c29 -48 60 -89 68 -92 17
-7 45 10 49 31 3 16 -350 593 -376 615 -9 6 -19 12 -22 12 -3 0 -13 -6 -22
-12z m110 -244 c46 -75 81 -138 79 -140 -2 -3 -81 -3 -174 -2 l-170 3 86 138
c47 75 88 137 91 137 3 0 42 -62 88 -136z"/>
<path d="M17762 15559 c-111 -21 -226 -104 -272 -196 -36 -70 -35 -178 2 -248
75 -143 255 -225 435 -197 122 19 203 63 203 109 0 37 -26 38 -96 2 -121 -61
-289 -50 -388 26 -88 67 -125 163 -96 251 18 53 91 127 153 155 43 20 69 24
152 24 93 0 105 -2 166 -32 74 -37 91 -40 109 -18 42 51 -141 138 -284 134
-23 -1 -60 -5 -84 -10z"/>
<path d="M18632 15555 c-111 -24 -212 -98 -256 -188 -35 -69 -36 -175 -4 -245
89 -188 363 -266 574 -162 257 126 258 440 1 560 -106 50 -198 60 -315 35z
m263 -94 c98 -44 165 -133 165 -221 0 -131 -126 -238 -291 -248 -243 -14 -417
178 -316 350 33 57 76 92 154 124 50 21 70 24 148 21 66 -2 103 -9 140 -26z"/>
<path d="M20273 15564 c-6 -3 -66 -93 -134 -200 l-122 -194 -37 0 c-81 0 -94
-51 -22 -87 2 -1 -13 -27 -33 -58 -41 -65 -44 -108 -8 -113 24 -3 50 28 108
126 l30 52 230 0 230 0 57 -90 c38 -60 63 -90 76 -90 21 0 42 18 42 36 0 15
-368 606 -384 616 -12 8 -16 9 -33 2z m111 -263 c42 -68 75 -125 73 -127 -2
-3 -81 -3 -175 -2 l-171 3 86 138 c68 107 89 135 98 125 7 -7 46 -69 89 -137z"/>
<path d="M4025 15538 c-3 -13 -4 -155 -3 -317 3 -267 5 -295 21 -305 12 -8 22
-8 35 0 16 10 17 37 17 325 l0 314 -32 3 c-27 3 -33 -1 -38 -20z"/>
<path d="M5082 15545 c-98 -30 -152 -93 -152 -175 0 -106 81 -155 300 -180
132 -15 177 -28 200 -58 26 -32 25 -44 -5 -81 -40 -47 -99 -64 -202 -59 -77 3
-96 8 -150 38 -52 29 -64 32 -77 21 -25 -21 -19 -48 17 -74 61 -46 123 -62
238 -62 98 0 110 2 164 30 78 40 105 80 105 153 0 51 -3 58 -38 91 -46 44 -85
57 -217 71 -186 21 -255 52 -255 115 0 35 23 61 80 91 28 15 57 19 150 19 125
0 177 -15 242 -70 34 -29 50 -31 68 -10 33 40 -39 107 -149 139 -68 20 -257
21 -319 1z"/>
<path d="M5569 15544 c-9 -11 -10 -20 -2 -32 8 -14 31 -18 126 -20 l117 -3 2
-281 c3 -255 5 -282 21 -292 12 -8 22 -8 35 0 15 10 17 37 20 292 l2 281 117
3 c95 2 118 6 126 20 8 12 7 21 -2 32 -12 14 -49 16 -281 16 -232 0 -269 -2
-281 -16z"/>
<path d="M6195 15547 c-3 -7 -4 -149 -3 -316 3 -277 5 -305 21 -315 12 -8 22
-8 35 0 15 10 17 38 20 305 1 162 0 304 -3 317 -4 17 -13 22 -36 22 -16 0 -32
-6 -34 -13z"/>
<path d="M6329 15544 c-9 -11 -10 -20 -2 -32 8 -14 31 -18 126 -20 l117 -3 2
-281 c3 -255 5 -282 21 -292 12 -8 22 -8 35 0 15 10 17 37 20 292 l2 281 117
3 c95 2 118 6 126 20 8 12 7 21 -2 32 -12 14 -49 16 -281 16 -232 0 -269 -2
-281 -16z"/>
<path d="M6937 15553 c-4 -3 -7 -103 -7 -222 0 -241 6 -266 71 -328 150 -142
469 -110 556 56 23 44 23 51 21 270 l-3 226 -30 0 -30 0 -5 -215 c-6 -257 -9
-266 -109 -317 -54 -28 -73 -33 -134 -33 -117 0 -188 30 -234 99 -22 33 -23
42 -23 237 0 111 -3 209 -6 218 -6 16 -54 22 -67 9z"/>
<path d="M7624 15546 c-3 -8 -4 -23 -2 -33 3 -16 18 -19 123 -23 l120 -5 3
-282 c2 -273 3 -282 23 -288 46 -15 49 -1 51 294 l3 276 120 5 120 5 0 30 0
30 -278 3 c-236 2 -278 0 -283 -12z"/>
<path d="M9262 15547 c-9 -11 -12 -91 -10 -317 3 -276 5 -304 21 -314 12 -8
22 -8 35 0 13 9 18 28 20 88 l3 76 113 0 c197 0 286 29 343 113 62 92 53 207
-22 282 -65 66 -111 77 -315 83 -146 3 -178 1 -188 -11z m307 -67 c120 -20
171 -62 178 -148 5 -60 -26 -117 -80 -145 -41 -21 -146 -36 -264 -36 l-73 -1
0 170 0 170 88 0 c48 0 116 -5 151 -10z"/>
<path d="M10697 15553 c-4 -3 -7 -145 -7 -315 l0 -308 26 -10 c35 -14 480 -13
505 0 21 12 25 40 7 58 -9 9 -75 12 -235 12 l-223 0 0 269 c0 148 -3 276 -6
285 -6 16 -54 22 -67 9z"/>
<path d="M11317 15554 c-4 -4 -7 -146 -7 -314 0 -329 2 -340 50 -325 20 6 20
11 18 323 l-3 317 -25 3 c-14 2 -29 0 -33 -4z"/>
<path d="M11444 15546 c-3 -8 -4 -23 -2 -33 3 -16 18 -19 123 -23 l120 -5 3
-282 c2 -264 3 -282 21 -288 10 -3 25 -3 34 1 15 5 17 38 19 288 l3 281 120 5
120 5 0 30 0 30 -278 3 c-236 2 -278 0 -283 -12z"/>
<path d="M14140 15240 c0 -288 2 -321 16 -327 9 -3 24 -2 33 4 14 9 16 46 16
324 l0 314 -32 3 -33 3 0 -321z"/>
<path d="M18207 15554 c-4 -4 -7 -146 -7 -314 0 -329 2 -340 50 -325 20 6 20
11 18 323 l-3 317 -25 3 c-14 2 -29 0 -33 -4z"/>
<path d="M20737 15554 c-4 -4 -7 -146 -7 -316 l0 -308 26 -10 c14 -6 126 -10
249 -10 230 0 275 6 275 38 0 39 -15 42 -252 42 l-228 0 -2 283 -3 282 -25 3
c-14 2 -29 0 -33 -4z"/>
<path d="M4880 14265 l0 -135 7655 0 7655 0 0 135 0 135 -7655 0 -7655 0 0
-135z"/>
<path d="M8790 13110 c-78 -10 -212 -55 -284 -94 -33 -18 -169 -89 -301 -156
-132 -67 -310 -159 -395 -203 -85 -43 -234 -120 -330 -169 -96 -50 -238 -123
-315 -163 -77 -40 -221 -114 -320 -165 -99 -51 -252 -130 -340 -175 -88 -46
-542 -280 -1010 -520 -822 -423 -1019 -524 -1360 -700 -88 -45 -250 -129 -360
-185 -522 -269 -503 -258 -695 -386 -792 -527 -974 -1148 -508 -1736 137 -173
364 -365 605 -512 94 -57 158 -89 1033 -514 278 -134 593 -287 700 -340 107
-52 267 -129 355 -172 88 -43 250 -121 360 -175 424 -207 595 -290 740 -360
83 -40 249 -121 370 -180 121 -59 297 -144 390 -190 94 -45 265 -129 380 -185
116 -56 356 -173 535 -260 179 -87 413 -200 520 -252 243 -119 337 -155 470
-181 l105 -22 3320 -3 c2519 -3 3356 0 3470 9 148 11 152 12 270 64 115 50
663 323 4055 2012 1671 832 1605 796 1798 995 243 249 374 472 428 727 18 87
18 281 -1 370 -76 363 -333 685 -775 973 -130 85 -247 144 -700 356 -36 16
-132 62 -215 102 -82 39 -184 88 -225 107 -41 20 -163 77 -270 128 -107 51
-294 140 -415 197 -121 58 -249 119 -285 136 -36 16 -132 62 -215 102 -82 40
-178 85 -213 101 -58 27 -351 166 -592 281 -99 48 -206 98 -365 173 -38 18
-142 68 -230 110 -88 42 -189 91 -225 107 -36 17 -96 45 -135 63 -38 18 -131
62 -205 98 -74 35 -173 83 -220 105 -47 22 -137 64 -200 94 -63 31 -149 71
-190 91 -41 19 -142 68 -225 107 -82 40 -184 88 -225 107 -41 19 -158 74 -260
123 -222 105 -315 139 -435 156 -73 11 -729 13 -3450 12 -1848 0 -3385 -4
-3415 -8z m2926 -309 c-3 -5 -38 -28 -78 -51 -232 -137 -632 -375 -751 -446
-75 -46 -139 -84 -141 -84 -3 0 -47 -26 -99 -59 -52 -32 -98 -60 -103 -62 -10
-4 -269 -158 -504 -299 -80 -48 -269 -160 -420 -250 -151 -89 -329 -195 -395
-235 -66 -40 -136 -81 -155 -92 -19 -11 -88 -52 -154 -92 -65 -39 -120 -71
-122 -71 -1 0 -49 -29 -106 -64 -98 -60 -430 -258 -473 -282 -11 -6 -67 -39
-125 -74 -58 -35 -119 -71 -136 -80 -17 -10 -71 -42 -120 -72 -126 -77 -437
-262 -449 -267 -34 -15 -255 -161 -387 -257 -177 -129 -268 -220 -362 -364
-61 -93 -74 -116 -115 -213 -95 -221 -85 -479 26 -702 107 -214 320 -435 561
-579 202 -122 1219 -576 1558 -696 571 -203 900 -287 1254 -322 173 -17 603
-17 790 0 313 29 660 89 930 163 140 39 180 54 460 172 686 291 1383 726 1804
1127 111 105 314 327 375 410 261 351 300 761 111 1146 -97 197 -348 459 -665
696 -66 50 -119 93 -118 97 7 21 417 54 683 53 413 0 659 -37 1034 -152 511
-158 898 -321 1699 -714 271 -133 350 -176 432 -238 177 -133 297 -269 371
-423 83 -170 87 -333 14 -508 -71 -171 -188 -312 -365 -441 -71 -52 -141 -103
-155 -113 -45 -33 -600 -370 -725 -439 -31 -17 -286 -168 -420 -249 -139 -83
-461 -274 -490 -291 -11 -6 -117 -69 -235 -139 -118 -70 -242 -144 -275 -163
-33 -19 -103 -61 -155 -92 -154 -92 -415 -248 -451 -268 -19 -11 -90 -53 -159
-94 -69 -41 -249 -148 -400 -238 -151 -89 -292 -173 -312 -186 -21 -13 -40
-24 -42 -24 -3 0 -51 -28 -108 -63 -57 -35 -182 -110 -278 -167 -186 -110
-294 -174 -535 -317 -82 -50 -194 -115 -247 -146 l-97 -57 -1620 0 c-1112 0
-1637 3 -1673 11 -133 27 -161 40 -1358 622 -113 54 -277 134 -365 177 -88 43
-254 124 -370 180 -115 56 -282 137 -370 180 -88 43 -259 126 -380 185 -121
59 -274 133 -340 165 -66 32 -212 103 -325 158 -113 55 -295 143 -405 197
-110 53 -285 139 -390 190 -104 51 -269 131 -365 178 -395 191 -537 261 -790
386 -271 134 -292 145 -370 196 -410 270 -640 576 -640 850 0 257 190 523 565
792 150 108 211 142 660 373 99 51 248 127 330 170 83 42 236 121 340 175 105
54 264 136 355 183 91 46 233 119 315 162 244 126 572 295 1050 540 110 56
268 137 350 180 140 72 248 128 680 350 94 48 244 126 335 173 197 101 423
217 695 357 110 57 245 126 300 155 95 50 170 79 225 88 51 9 2891 7 2886 -2z
m3989 -23 c44 -15 206 -88 360 -161 315 -150 387 -185 530 -252 219 -104 667
-316 790 -375 72 -34 171 -81 220 -105 50 -23 144 -68 210 -100 66 -31 152
-72 190 -90 39 -18 129 -61 200 -95 72 -34 164 -78 205 -97 86 -40 410 -194
610 -290 74 -36 160 -76 190 -90 30 -14 159 -75 285 -136 127 -60 304 -145
395 -187 152 -72 246 -116 500 -237 52 -25 141 -67 198 -94 56 -27 150 -72
210 -100 59 -28 197 -94 307 -146 316 -150 352 -170 536 -298 141 -99 335
-292 410 -410 199 -310 165 -643 -100 -965 -109 -134 -273 -283 -371 -339 -33
-19 -941 -472 -2165 -1081 -550 -274 -1517 -755 -2149 -1069 -632 -315 -1176
-584 -1210 -599 l-61 -27 -1530 -2 c-1051 -2 -1525 0 -1515 7 8 6 92 56 185
112 94 56 287 171 430 256 143 85 276 164 295 175 19 10 67 38 105 62 39 23
156 93 260 155 105 62 226 134 270 160 44 26 96 57 115 67 19 11 150 89 290
173 140 84 269 160 286 170 17 10 64 38 105 62 41 25 164 98 274 163 110 65
243 143 295 175 52 31 174 103 270 160 96 57 221 132 278 166 57 35 105 64
108 64 2 0 21 11 42 24 20 13 116 70 212 126 96 57 202 119 235 140 33 21 105
63 160 95 235 136 509 325 618 424 150 139 269 323 340 524 31 90 32 96 32
267 0 172 -1 177 -32 268 -93 266 -300 510 -597 706 -101 67 -772 394 -1161
566 -27 12 -66 29 -85 37 -375 167 -934 358 -1220 418 -457 96 -1064 96 -1621
0 -131 -23 -395 -81 -496 -111 -266 -77 -888 -364 -1217 -561 -49 -29 -90 -53
-92 -53 -9 0 -239 -149 -347 -225 -198 -138 -207 -144 -337 -251 -171 -139
-249 -212 -423 -399 -217 -233 -318 -395 -384 -615 -26 -89 -28 -106 -28 -280
0 -171 2 -192 27 -283 30 -107 77 -215 135 -310 94 -155 398 -465 615 -626 32
-24 57 -45 55 -47 -8 -9 -266 -34 -446 -45 -230 -13 -480 -2 -720 32 -168 24
-267 45 -436 95 -505 149 -805 264 -1445 553 -303 137 -291 132 -495 232 -195
95 -281 154 -408 278 -198 192 -280 371 -263 573 10 123 53 230 144 358 87
123 149 178 412 367 25 18 144 92 265 164 121 73 271 163 333 201 61 37 114
68 116 68 3 0 51 29 108 63 57 35 193 117 303 182 110 65 290 172 400 238 110
66 215 129 234 139 32 18 101 59 501 298 188 113 392 234 405 240 6 3 188 111
405 241 217 130 411 246 430 257 19 11 150 88 290 172 140 84 269 161 285 170
17 9 77 45 135 80 58 35 119 71 135 80 17 10 145 86 285 170 140 84 271 161
290 172 19 11 39 24 45 29 6 6 669 8 1690 7 l1680 -3 80 -27z m-2457 -1985
c65 -37 244 -157 317 -211 181 -137 406 -349 502 -473 149 -193 203 -458 142
-694 -20 -78 -108 -240 -176 -325 -86 -107 -381 -405 -493 -497 -398 -328
-912 -636 -1480 -888 -262 -116 -381 -160 -554 -205 -131 -34 -159 -39 -178
-29 -21 11 -77 49 -208 140 -152 106 -418 354 -541 505 -73 89 -128 192 -165
304 -25 78 -27 98 -28 240 0 144 2 161 28 235 65 190 147 303 409 569 284 286
574 508 997 758 371 220 980 501 1230 567 47 13 90 25 95 26 29 9 61 2 103
-22z"/>
<path d="M4880 3865 l0 -135 7655 0 7655 0 0 135 0 135 -7655 0 -7655 0 0
-135z"/>
<path d="M9164 2895 c-481 -55 -829 -285 -909 -600 -8 -32 -15 -101 -15 -152
0 -238 127 -422 375 -542 206 -100 356 -132 860 -186 331 -35 460 -62 585
-122 98 -47 150 -91 185 -155 26 -47 29 -63 29 -138 0 -72 -4 -93 -26 -135
-69 -131 -236 -234 -458 -282 -67 -14 -129 -18 -295 -18 -184 0 -223 3 -315
24 -195 43 -330 105 -483 223 -77 59 -159 63 -219 9 -26 -23 -32 -37 -36 -82
-4 -49 -1 -58 27 -93 60 -75 224 -179 380 -241 216 -86 444 -121 727 -112 191
6 308 24 439 69 163 56 277 123 378 222 107 106 156 200 178 344 43 279 -119
521 -426 637 -174 65 -258 79 -940 156 -134 15 -258 45 -368 89 -201 81 -286
175 -295 330 -6 109 21 175 107 260 169 168 463 249 861 237 420 -13 701 -109
939 -322 80 -72 104 -85 158 -85 88 0 138 56 131 146 -5 63 -31 96 -147 189
-291 235 -667 347 -1149 344 -92 -1 -217 -7 -278 -14z"/>
<path d="M12150 2895 c-267 -33 -551 -139 -770 -289 -106 -72 -274 -243 -344
-349 -148 -226 -217 -471 -202 -722 7 -136 23 -212 71 -340 128 -343 424 -629
800 -774 269 -103 471 -137 754 -128 176 5 289 22 436 63 181 51 336 119 481
212 107 68 135 100 141 155 10 89 -46 149 -139 149 -43 0 -59 -6 -135 -58
-158 -106 -338 -181 -539 -226 -84 -18 -130 -22 -304 -22 -176 0 -219 3 -304
22 -295 66 -527 190 -708 380 -88 93 -127 148 -173 245 -69 144 -98 335 -76
497 61 451 433 794 986 907 134 27 444 25 575 -5 189 -42 353 -113 534 -231
68 -44 85 -51 129 -51 68 0 111 28 133 85 16 43 16 48 -1 91 -14 36 -31 56
-84 95 -189 140 -529 268 -793 298 -124 14 -334 12 -468 -4z"/>
<path d="M14719 2895 c-195 -24 -465 -111 -629 -203 -334 -188 -575 -478 -666
-803 -21 -77 -27 -123 -31 -250 -5 -136 -2 -170 17 -260 47 -221 150 -413 315
-587 305 -323 746 -501 1240 -502 268 0 454 34 700 127 263 100 535 310 683
526 73 105 146 262 179 382 25 91 27 115 27 275 0 159 -2 184 -27 275 -125
457 -513 816 -1049 971 -211 60 -506 79 -759 49z m565 -284 c341 -70 646 -259
814 -504 47 -68 108 -196 132 -277 34 -118 39 -293 10 -416 -25 -109 -95 -259
-164 -351 -181 -239 -481 -419 -801 -479 -148 -28 -491 -26 -625 4 -481 106
-853 433 -941 826 -93 415 133 833 571 1060 161 83 244 109 510 160 64 12 398
-4 494 -23z"/>
<path d="M16879 2886 c-14 -8 -33 -30 -43 -48 -16 -31 -17 -108 -14 -1242 l3
-1208 35 -29 c61 -51 139 -51 200 0 l35 29 3 1001 c2 851 4 1001 16 1001 8 0
16 -4 18 -9 2 -5 57 -66 123 -136 66 -70 127 -136 135 -145 17 -20 167 -182
380 -410 238 -255 244 -260 312 -260 33 0 112 41 125 64 4 8 40 47 78 88 39
41 111 119 160 173 50 55 122 134 160 175 39 42 117 127 175 190 58 62 129
140 159 172 30 32 61 68 68 78 8 11 18 20 24 20 5 0 9 -372 9 -979 0 -560 4
-990 9 -1003 23 -59 97 -97 166 -84 20 4 53 22 73 41 l37 33 3 1205 2 1204
-23 34 c-12 18 -34 39 -47 46 -26 13 -100 17 -138 7 -12 -4 -134 -129 -269
-278 -136 -149 -252 -276 -258 -282 -5 -6 -50 -55 -100 -109 -49 -54 -97 -106
-105 -115 -13 -14 -179 -197 -205 -226 -89 -99 -108 -115 -120 -102 -11 12
-102 112 -204 223 -43 46 -102 110 -265 285 -34 36 -106 115 -161 175 -156
170 -213 231 -311 334 l-91 95 -64 3 c-43 2 -73 -1 -90 -11z"/>
<path d="M5910 2851 c-19 -10 -45 -36 -57 -57 l-23 -39 0 -722 0 -723 -87 0
c-130 -1 -171 -12 -210 -54 -27 -30 -33 -44 -33 -82 0 -55 27 -105 67 -124 16
-7 81 -15 145 -18 l117 -5 3 -303 c3 -290 4 -304 24 -331 12 -15 36 -37 55
-48 33 -20 54 -20 1023 -23 981 -2 989 -2 1032 18 95 47 98 182 4 232 -33 17
-81 18 -942 18 l-908 0 0 220 0 220 933 2 c1029 3 969 -1 1014 67 43 64 20
150 -49 188 -31 17 -90 18 -965 21 l-933 2 0 650 0 650 959 0 958 0 34 23 c68
45 74 144 14 204 l-33 33 -1054 0 c-1006 0 -1055 -1 -1088 -19z"/>
</g>
</svg>
