<?xml version="1.0" standalone="no"?>
<!DOCTYPE svg PUBLIC "-//W3C//DTD SVG 20010904//EN"
 "http://www.w3.org/TR/2001/REC-SVG-20010904/DTD/svg10.dtd">
<svg version="1.0" xmlns="http://www.w3.org/2000/svg" viewBox="65 -5 200 200"
 preserveAspectRatio="xMidYMid meet">
<metadata>
Created by potrace 1.16, written by Peter Selinger 2001-2019
</metadata>
<g transform="translate(0.000000,192.000000) scale(0.100000,-0.100000)"
fill="#000000" stroke="none">
<path d="M1511 1815 c-169 -37 -312 -121 -440 -260 -246 -266 -287 -647 -103
-957 37 -62 43 -66 62 -43 10 12 7 24 -17 62 -62 102 -103 255 -103 390 -1
365 228 658 585 748 79 20 278 20 359 0 82 -21 161 -53 219 -88 46 -28 50 -29
65 -13 16 16 15 18 -8 36 -49 38 -166 89 -260 115 -110 29 -252 33 -359 10z" fill="#810881"/>
<path d="M2226 1808 c-12 -17 -16 -48 -16 -123 l0 -100 -132 -132 -133 -133
-107 0 c-137 0 -138 -1 -138 -151 0 -139 3 -143 144 -147 101 -4 101 -4 139
-40 l37 -36 0 -107 c0 -104 1 -108 26 -128 23 -18 41 -21 121 -21 91 0 96 1
124 29 28 29 29 33 29 126 0 93 -1 97 -29 126 -29 28 -32 29 -128 29 -99 0
-99 0 -131 33 -32 33 -32 33 -32 138 l0 104 128 128 127 127 107 0 c104 0 107
1 128 27 20 25 21 38 18 129 -4 142 -7 144 -154 144 -105 0 -114 -1 -128 -22z" fill="#810881"/>
<path d="M1372 1618 c-8 -8 -12 -52 -12 -134 0 -102 3 -123 16 -128 30 -12
239 -7 252 6 17 17 17 239 0 256 -8 8 -51 12 -128 12 -77 0 -120 -4 -128 -12z" fill="#9020ec"/>
<path d="M2310 1455 c0 -3 14 -27 30 -54 77 -125 116 -281 107 -431 -7 -123
-26 -193 -84 -310 -39 -81 -60 -109 -142 -191 -104 -105 -179 -152 -302 -194
-202 -69 -454 -43 -630 66 -34 21 -66 36 -71 33 -47 -29 121 -123 285 -159 60
-13 108 -16 210 -13 114 4 144 9 219 36 239 83 403 236 496 462 89 216 78 459
-30 678 -34 69 -44 82 -64 82 -13 0 -24 -2 -24 -5z" fill="#9020ec"/>
<path d="M1050 1289 c-13 -24 -10 -232 3 -246 5 -4 57 -9 115 -11 l107 -4 43
-41 42 -41 0 -96 0 -95 -142 -142 -143 -142 -110 -3 -110 -3 -3 -128 -3 -127
28 -11 c43 -16 231 -8 243 11 5 8 10 60 10 115 l0 100 138 138 137 137 92 0
c50 0 103 4 117 10 l26 10 0 125 0 125 -26 10 c-14 6 -65 10 -113 10 l-87 0
-47 48 -46 47 -3 110 -3 110 -127 3 c-121 2 -128 2 -138 -19z" fill="#9020ec"/>
<path d="M1722 657 c-20 -21 -22 -34 -22 -128 0 -97 2 -107 23 -127 21 -20 34
-22 128 -22 150 0 149 -1 149 150 0 151 1 150 -150 150 -98 0 -108 -2 -128
-23z" fill="#9020ec"/>
</g>
</svg>
