<?xml version="1.0" standalone="no"?>
<!DOCTYPE svg PUBLIC "-//W3C//DTD SVG 20010904//EN"
 "http://www.w3.org/TR/2001/REC-SVG-20010904/DTD/svg10.dtd">
<svg version="1.0" xmlns="http://www.w3.org/2000/svg"
 width="520.000000pt" height="305.000000pt" viewBox="0 0 520.000000 305.000000"
 preserveAspectRatio="xMidYMid meet">

<g transform="translate(0.000000,305.000000) scale(0.100000,-0.100000) "
fill="#ffffff" stroke="none">
<path d="M2471 2905 c-169 -37 -312 -121 -440 -260 -246 -266 -287 -647 -103
-957 37 -62 43 -66 62 -43 10 12 7 24 -17 62 -62 102 -103 255 -103 390 -1
365 228 658 585 748 79 20 278 20 359 0 82 -21 161 -53 219 -88 46 -28 50 -29
65 -13 16 16 15 18 -8 36 -49 38 -166 89 -260 115 -110 29 -252 33 -359 10z" fill="#810881"/>

<path d="M3186 2898 c-12 -17 -16 -48 -16 -123 l0 -100 -132 -132 -133 -133
-107 0 c-137 0 -138 -1 -138 -151 0 -139 3 -143 144 -147 101 -4 101 -4 139
-40 l37 -36 0 -107 c0 -104 1 -108 26 -128 23 -18 41 -21 121 -21 91 0 96 1
124 29 28 29 29 33 29 126 0 93 -1 97 -29 126 -29 28 -32 29 -128 29 -99 0
-99 0 -131 33 -32 33 -32 33 -32 138 l0 104 128 128 127 127 107 0 c104 0 107
1 128 27 20 25 21 38 18 129 -4 142 -7 144 -154 144 -105 0 -114 -1 -128 -22z" fill="#810881"/>

<path d="M2332 2708 c-8 -8 -12 -52 -12 -134 0 -102 3 -123 16 -128 30 -12
239 -7 252 6 17 17 17 239 0 256 -8 8 -51 12 -128 12 -77 0 -120 -4 -128 -12z" fill="#9020ec"/>

<path d="M3270 2545 c0 -3 14 -27 30 -54 77 -125 116 -281 107 -431 -7 -123
-26 -193 -84 -310 -39 -81 -60 -109 -142 -191 -104 -105 -179 -152 -302 -194
-202 -69 -454 -43 -630 66 -34 21 -66 36 -71 33 -47 -29 121 -123 285 -159 60
-13 108 -16 210 -13 114 4 144 9 219 36 239 83 403 236 496 462 89 216 78 459
-30 678 -34 69 -44 82 -64 82 -13 0 -24 -2 -24 -5z" fill="#9020ec"/>

<path d="M2010 2379 c-13 -24 -10 -232 3 -246 5 -4 57 -9 115 -11 l107 -4 43
-41 42 -41 0 -96 0 -95 -142 -142 -143 -142 -110 -3 -110 -3 -3 -128 -3 -127
28 -11 c43 -16 231 -8 243 11 5 8 10 60 10 115 l0 100 138 138 137 137 92 0
c50 0 103 4 117 10 l26 10 0 125 0 125 -26 10 c-14 6 -65 10 -113 10 l-87 0
-47 48 -46 47 -3 110 -3 110 -127 3 c-121 2 -128 2 -138 -19z" fill="#9020ec"/>

<path d="M2682 1747 c-20 -21 -22 -34 -22 -128 0 -97 2 -107 23 -127 21 -20
34 -22 128 -22 150 0 149 -1 149 150 0 151 1 150 -150 150 -98 0 -108 -2 -128
-23z"  fill="#9020ec"/>

<path d="M1624 1031 c-61 -28 -74 -69 -74 -236 0 -167 13 -208 74 -236 52 -24
78 -24 124 0 63 33 76 67 79 216 4 147 -12 214 -58 247 -38 29 -96 32 -145 9z
m94 -73 c8 -8 12 -59 12 -163 0 -153 -5 -175 -39 -175 -8 0 -23 7 -33 17 -16
14 -18 33 -18 156 0 117 3 144 17 159 19 21 44 23 61 6z" fill="#810881"/>

<path d="M1953 1036 c-20 -9 -41 -31 -55 -58 -21 -39 -23 -56 -23 -183 0 -167
15 -208 84 -239 83 -38 159 6 181 106 16 72 10 88 -33 88 -43 0 -55 -14 -59
-69 -3 -51 -26 -73 -55 -55 -16 10 -18 30 -18 169 0 139 2 159 18 169 29 19
51 -4 57 -60 l5 -49 45 0 45 0 -1 46 c-2 54 -25 103 -59 125 -34 22 -94 27
-132 10z" fill="#810881"/>

<path d="M1028 1034 c-14 -13 -10 -458 4 -472 17 -17 131 -15 173 2 45 19 75
69 75 126 0 52 -28 105 -60 115 -22 7 -22 8 8 35 17 15 34 40 38 54 10 40 -21
110 -54 126 -31 15 -173 26 -184 14z m150 -103 c6 -55 -5 -81 -33 -81 -24 0
-25 3 -25 61 0 60 0 60 28 57 23 -3 28 -8 30 -37z m-4 -173 c18 -26 21 -90 6
-119 -6 -11 -21 -19 -35 -19 -24 0 -25 2 -25 80 0 73 2 80 19 80 11 0 27 -10
35 -22z" fill="#810881"/>

<path d="M2195 1028 c-3 -7 -4 -117 -3 -243 l3 -230 45 0 45 0 5 98 c3 53 10
98 15 100 6 1 26 -43 45 -98 l35 -100 43 -3 c26 -2 42 1 42 8 0 6 -20 65 -45
131 -25 66 -45 131 -45 145 0 13 18 60 40 104 22 44 40 84 40 90 0 5 -20 10
-45 10 -34 0 -47 -4 -52 -17 -20 -60 -66 -163 -70 -159 -3 2 -5 42 -6 88 l-2
83 -43 3 c-28 2 -44 -1 -47 -10z" fill="#810881"/>

<path d="M2505 1028 c-3 -7 -4 -117 -3 -243 l3 -230 45 0 45 0 3 108 3 107 34
0 35 0 0 -98 c0 -104 7 -122 46 -122 52 0 55 13 52 258 l-3 227 -45 0 -45 0
-3 -97 -3 -98 -34 0 -34 0 -3 98 -3 97 -43 3 c-28 2 -44 -1 -47 -10z" fill="#810881"/>

<path d="M2825 1028 c-3 -7 -4 -117 -3 -243 l3 -230 95 0 95 0 0 30 c0 29 -2
30 -47 33 l-48 3 0 74 0 74 33 3 c28 3 32 6 32 33 0 27 -4 30 -32 33 l-33 3 0
64 0 64 48 3 c44 3 47 5 50 34 l3 30 -96 3 c-72 2 -96 -1 -100 -11z" fill="#810881"/>

<path d="M3365 1028 c-3 -7 -4 -117 -3 -243 l3 -230 90 0 90 0 0 30 c0 28 -3
30 -42 33 l-43 3 -2 207 -3 207 -43 3 c-28 2 -44 -1 -47 -10z" fill="#810881"/>

<path d="M3817 1034 c-4 -4 -7 -109 -7 -234 0 -239 2 -250 46 -250 44 0 54 24
54 126 l0 94 35 0 34 0 3 -107 3 -108 40 0 40 0 0 240 0 240 -40 0 -40 0 -3
-97 -3 -98 -34 0 -34 0 -3 98 -3 97 -40 3 c-23 2 -44 0 -48 -4z" fill="#810881"/>

<path d="M1335 1018 c-3 -7 -4 -115 -3 -238 l3 -225 90 0 90 0 0 30 c0 28 -3
30 -45 35 l-45 5 -5 200 -5 200 -38 3 c-24 2 -39 -1 -42 -10z" fill="#810881"/>

<path d="M3143 1018 c-4 -7 -29 -110 -55 -228 -50 -230 -50 -240 3 -240 32 0
49 27 49 76 0 23 3 25 37 22 34 -3 37 -6 47 -48 10 -41 14 -45 45 -48 18 -2
38 1 43 6 10 10 -78 439 -94 460 -6 6 -23 12 -39 12 -15 0 -31 -6 -36 -12z
m52 -210 c3 -35 9 -71 11 -80 4 -15 -1 -18 -26 -18 -23 0 -31 4 -27 13 3 8 8
44 12 80 4 37 11 67 15 67 5 0 11 -28 15 -62z" fill="#810881"/>

<path d="M3543 1015 c-11 -30 2 -50 34 -53 l33 -3 2 -202 3 -202 45 0 45 0 3
202 2 202 33 3 c28 3 32 7 32 33 l0 30 -113 1 c-87 2 -115 -1 -119 -11z" fill="#810881"/>

<path d="M4283 389 c-13 -5 -23 -13 -23 -18 0 -5 -3 -17 -7 -26 -5 -15 -3 -16
15 -6 12 7 22 18 22 26 0 7 6 15 13 18 6 2 10 7 7 9 -3 3 -15 2 -27 -3z" fill="#9020ec"/>
<path d="M106 348 c1 -18 3 -36 3 -40 1 -5 6 -8 11 -8 6 0 10 18 10 40 0 27
-4 40 -14 40 -9 0 -13 -10 -10 -32z" fill="#9020ec"/>

<path d="M160 339 c0 -52 23 -48 28 4 2 28 -2 37 -13 37 -11 0 -15 -11 -15
-41z" fill="#9020ec"/>

<path d="M238 308 c-2 -40 -2 -103 0 -140 l3 -68 49 0 c53 0 69 16 23 22 -26
3 -28 7 -31 51 -3 42 0 49 17 54 12 3 21 9 21 13 0 4 -9 10 -21 13 -17 5 -20
12 -17 54 3 44 5 48 31 51 46 6 30 22 -22 22 l-49 0 -4 -72z" fill="#9020ec"/>

<path d="M380 240 c0 -133 1 -140 20 -140 19 0 20 7 20 140 0 133 -1 140 -20
140 -19 0 -20 -7 -20 -140z" fill="#9020ec"/>

<path d="M1508 338 c-3 -42 -4 -43 -38 -43 l-35 0 0 -95 0 -95 58 -2 57 -2 0
139 c0 132 -1 140 -19 140 -16 0 -20 -8 -23 -42z m-8 -138 c0 -56 -3 -70 -15
-70 -12 0 -15 14 -15 70 0 56 3 70 15 70 12 0 15 -14 15 -70z" fill="#9020ec"/>

<path d="M1820 240 c0 -133 1 -140 20 -140 19 0 20 7 20 140 0 133 -1 140 -20
140 -19 0 -20 -7 -20 -140z" fill="#9020ec"/>

<path d="M2288 290 c-1 -49 -1 -112 0 -140 l4 -50 49 0 c52 0 68 16 22 22 -26
3 -28 7 -31 51 -3 42 0 49 17 54 27 7 27 19 0 26 -17 5 -20 12 -17 54 3 44 5
48 31 51 46 6 30 22 -22 22 l-49 0 -4 -90z" fill="#9020ec"/>

<path d="M2980 335 c0 -43 -1 -45 -25 -39 -43 11 -55 -10 -55 -96 0 -50 4 -81
13 -88 6 -5 33 -10 60 -10 l47 -1 0 139 c0 133 -1 140 -20 140 -17 0 -20 -7
-20 -45z m-5 -136 c0 -53 -3 -64 -17 -67 -16 -3 -18 5 -18 61 0 35 3 67 7 71
18 17 28 -6 28 -65z" fill="#9020ec"/>

<path d="M3960 240 c0 -118 2 -140 15 -140 12 0 15 18 15 101 0 96 12 126 23
57 17 -110 31 -159 46 -156 9 2 17 12 19 23 1 11 10 54 19 95 l17 75 7 -45 c4
-25 8 -69 8 -97 1 -29 6 -53 11 -53 6 0 10 53 10 140 l0 140 -25 0 c-14 0 -25
-1 -25 -3 0 -15 -23 -129 -32 -157 l-11 -34 -13 49 c-7 28 -16 71 -19 98 -6
44 -9 47 -36 47 l-29 0 0 -140z" fill="#9020ec"/>

<path d="M4438 338 c-3 -42 -4 -43 -38 -43 l-35 0 0 -95 0 -95 58 -2 57 -2 0
139 c0 132 -1 140 -19 140 -16 0 -20 -8 -23 -42z m-8 -138 c0 -56 -3 -70 -15
-70 -12 0 -15 14 -15 70 0 56 3 70 15 70 12 0 15 -14 15 -70z" fill="#9020ec"/>

<path d="M5071 358 c0 -13 4 -32 9 -43 l9 -20 0 20 c1 11 4 30 7 43 5 16 2 22
-10 22 -10 0 -16 -8 -15 -22z" fill="#9020ec"/>

<path d="M5126 364 c-8 -21 4 -65 15 -58 12 7 12 74 0 74 -5 0 -12 -7 -15 -16z" fill="#9020ec"/>

<path d="M820 342 c0 -15 -5 -33 -12 -40 -8 -8 -8 -15 2 -27 8 -10 11 -34 8
-73 -7 -73 4 -102 37 -102 28 0 32 12 10 30 -23 19 -21 135 3 150 16 10 16 10
0 20 -11 7 -18 23 -18 40 0 20 -5 30 -15 30 -10 0 -15 -10 -15 -28z" fill="#9020ec"/>

<path d="M3070 349 c0 -14 5 -19 17 -17 26 5 29 38 4 38 -15 0 -21 -6 -21 -21z" fill="#9020ec"/>

<path d="M3490 342 c0 -15 -5 -33 -12 -40 -8 -8 -8 -15 0 -25 6 -7 12 -49 14
-92 3 -79 3 -80 31 -83 30 -4 35 9 12 28 -23 19 -21 135 3 150 16 10 16 10 0
20 -11 7 -18 23 -18 40 0 20 -5 30 -15 30 -10 0 -15 -10 -15 -28z" fill="#9020ec"/>

<path d="M4530 350 c0 -11 7 -20 15 -20 8 0 15 9 15 20 0 11 -7 20 -15 20 -8
0 -15 -9 -15 -20z" fill="#9020ec"/>

<path d="M550 342 c0 -10 -4 -22 -8 -27 -5 -6 -7 -56 -4 -112 4 -93 6 -103 23
-103 17 0 19 8 19 85 0 70 3 86 18 94 16 9 16 11 -3 25 -19 15 -19 17 -2 30
25 19 21 26 -13 26 -22 0 -30 -5 -30 -18z" fill="#9020ec"/>

<path d="M3083 303 c-9 -3 -13 -34 -13 -104 0 -92 1 -99 20 -99 19 0 20 7 20
99 0 99 -4 112 -27 104z" fill="#9020ec"/>

<path d="M4537 303 c-4 -3 -7 -51 -7 -105 0 -77 3 -98 14 -98 15 0 25 94 18
169 -4 39 -11 49 -25 34z" fill="#9020ec"/>

<path d="M640 213 c0 -49 4 -93 8 -99 4 -6 31 -11 60 -11 l52 -1 0 99 c0 92
-1 99 -20 99 -17 0 -19 -8 -22 -82 -2 -66 -6 -83 -18 -83 -12 0 -16 17 -18 83
-3 74 -5 82 -22 82 -18 0 -20 -7 -20 -87z" fill="#9020ec"/>

<path d="M922 203 l3 -98 58 -2 57 -2 0 99 c0 93 -1 100 -20 100 -17 0 -19 -8
-22 -87 -2 -70 -6 -88 -18 -88 -12 0 -16 18 -18 88 -3 79 -5 87 -23 87 -19 0
-20 -6 -17 -97z" fill="#9020ec"/>

<path d="M1090 199 c0 -92 1 -99 20 -99 18 0 20 7 20 80 0 69 3 82 20 92 30
19 25 26 -20 26 l-40 1 0 -100z" fill="#9020ec"/>

<path d="M1222 291 c-19 -12 -31 -79 -23 -131 5 -37 11 -46 33 -54 18 -7 35
-6 53 2 24 11 25 16 25 90 0 47 -5 83 -12 90 -14 14 -57 16 -76 3z m48 -91 c0
-56 -3 -70 -15 -70 -12 0 -15 14 -15 70 0 56 3 70 15 70 12 0 15 -14 15 -70z" fill="#9020ec"/>

<path d="M1607 282 c-25 -27 -24 -143 1 -165 37 -34 102 -8 102 40 0 21 -38
15 -45 -7 -8 -24 -21 -26 -29 -4 -15 39 -7 52 35 59 41 7 41 8 35 43 -3 19
-11 39 -18 44 -23 14 -64 9 -81 -10z m53 -32 c0 -11 -7 -20 -15 -20 -15 0 -21
21 -8 33 12 13 23 7 23 -13z" fill="#9020ec"/>

<path d="M1923 288 c-6 -7 -13 -44 -16 -82 -4 -58 -2 -71 14 -87 21 -21 50
-24 80 -9 16 9 19 22 19 88 0 47 -5 83 -12 90 -16 16 -73 15 -85 0z m57 -88
c0 -56 -3 -70 -15 -70 -12 0 -15 14 -15 70 0 56 3 70 15 70 12 0 15 -14 15
-70z" fill="#9020ec"/>

<path d="M2078 289 c-29 -16 -21 -55 17 -93 19 -20 35 -42 35 -51 0 -18 -26
-20 -33 -2 -4 9 -7 9 -18 -1 -12 -11 -11 -16 6 -28 11 -8 34 -14 50 -12 26 3
30 7 33 37 3 28 -3 40 -34 72 -23 24 -34 43 -31 53 8 20 21 20 37 1 14 -17 30
-20 30 -6 0 33 -57 51 -92 30z" fill="#9020ec"/>

<path d="M2441 253 c20 -48 19 -59 -16 -145 -5 -13 -2 -15 13 -11 11 3 23 16
26 29 8 31 24 31 32 -1 4 -16 13 -25 25 -25 18 0 18 2 -1 54 -20 53 -20 53 -1
100 20 44 20 46 2 46 -12 0 -21 -10 -25 -25 -4 -14 -11 -25 -16 -25 -5 0 -12
11 -16 25 -4 15 -13 25 -25 25 -18 0 -18 -2 2 -47z" fill="#9020ec"/>

<path d="M2580 170 c0 -122 1 -130 19 -130 15 0 21 8 23 33 3 29 6 32 38 32
l35 0 0 95 0 95 -57 2 -58 2 0 -129z m80 30 c0 -56 -3 -70 -15 -70 -12 0 -15
14 -15 70 0 56 3 70 15 70 12 0 15 -14 15 -70z" fill="#9020ec"/>

<path d="M2762 288 c-7 -7 -12 -43 -12 -90 0 -66 3 -79 19 -88 43 -22 91 -1
91 41 0 26 -36 25 -43 -1 -8 -33 -27 -23 -27 15 0 28 4 35 19 35 36 0 51 12
51 40 0 16 -7 36 -16 44 -18 19 -65 21 -82 4z m56 -41 c2 -10 -3 -17 -12 -17
-10 0 -16 9 -16 21 0 24 23 21 28 -4z" fill="#9020ec"/>

<path d="M3172 288 c-7 -7 -12 -43 -12 -90 0 -66 3 -79 19 -88 43 -22 91 -1
91 41 0 26 -36 25 -43 -1 -8 -32 -27 -23 -27 14 0 31 3 34 35 40 30 6 35 11
35 36 0 16 -7 36 -16 44 -18 19 -65 21 -82 4z m53 -38 c0 -7 -6 -15 -12 -17
-8 -3 -13 4 -13 17 0 13 5 20 13 18 6 -3 12 -11 12 -18z" fill="#9020ec"/>

<path d="M3310 200 c0 -93 1 -100 20 -100 17 0 19 8 22 83 3 74 5 82 23 82 18
0 20 -8 23 -82 2 -66 6 -83 18 -83 12 0 14 16 12 98 l-3 97 -57 2 -58 2 0 -99z" fill="#9020ec"/>

<path d="M3606 284 c-12 -11 -16 -36 -16 -90 0 -70 2 -75 25 -86 38 -17 79 0
83 35 3 22 -1 27 -17 27 -14 0 -21 -6 -21 -20 0 -11 -7 -20 -15 -20 -10 0 -15
10 -15 34 0 32 3 35 33 38 28 3 32 7 35 36 2 18 -2 40 -9 48 -15 19 -64 18
-83 -2z m54 -34 c0 -11 -7 -20 -15 -20 -8 0 -15 9 -15 20 0 11 7 20 15 20 8 0
15 -9 15 -20z" fill="#9020ec"/>

<path d="M3758 289 c-28 -16 -21 -55 17 -98 19 -21 35 -44 35 -50 0 -14 -27
-15 -32 0 -2 5 -11 7 -21 3 -17 -6 -17 -8 -1 -25 19 -21 64 -25 82 -7 21 21
13 57 -23 97 -19 21 -35 44 -35 50 0 16 28 14 37 -4 6 -9 13 -11 23 -5 12 7
11 12 -4 29 -21 23 -51 26 -78 10z" fill="#9020ec"/>

<path d="M4216 284 c-12 -11 -16 -35 -16 -84 0 -77 14 -100 59 -100 33 0 51
16 51 47 0 28 -26 31 -33 3 -3 -11 -13 -20 -22 -20 -13 0 -16 8 -13 38 3 34 6
37 36 40 29 3 32 6 32 36 0 17 -5 37 -12 44 -17 17 -64 15 -82 -4z m54 -34 c0
-11 -7 -20 -15 -20 -15 0 -21 21 -8 33 12 13 23 7 23 -13z" fill="#9020ec"/>

<path d="M4626 284 c-12 -11 -16 -35 -16 -84 0 -77 14 -100 59 -100 33 0 51
16 51 47 0 30 -28 30 -32 1 -2 -13 -10 -23 -18 -23 -12 0 -16 15 -18 65 -1 36
2 71 7 79 11 18 31 5 31 -20 0 -10 7 -19 15 -19 18 0 20 41 3 58 -17 17 -64
15 -82 -4z" fill="#9020ec"/>

<path d="M4782 288 c-7 -7 -12 -43 -12 -90 0 -74 1 -79 25 -90 18 -8 35 -9 53
-2 26 9 27 13 30 88 2 49 -1 83 -9 92 -14 17 -71 18 -87 2z m58 -88 c0 -56 -3
-70 -15 -70 -12 0 -15 14 -15 70 0 56 3 70 15 70 12 0 15 -14 15 -70z" fill="#9020ec"/>

<path d="M4938 289 c-29 -16 -21 -55 17 -93 19 -20 35 -42 35 -51 0 -18 -26
-20 -33 -2 -4 9 -7 9 -18 -1 -12 -11 -11 -16 5 -28 24 -17 58 -18 74 -2 23 23
13 63 -23 98 -19 19 -35 40 -35 47 0 15 26 18 35 3 8 -13 35 -13 35 -1 0 33
-57 51 -92 39z" fill="#9020ec"/>

</g>
</svg>
